<?xml version="1.0" encoding="UTF-8" standalone="no"?>
<!DOCTYPE svg PUBLIC "-//W3C//DTD SVG 1.1//EN"
 "http://www.w3.org/Graphics/SVG/1.1/DTD/svg11.dtd">
<!-- Generated by graphviz version 2.43.0 (0)
 -->
<!-- Title: %3 Pages: 1 -->
<svg width="1537pt" height="640pt"
 viewBox="0.00 0.00 1536.50 640.00" xmlns="http://www.w3.org/2000/svg" xmlns:xlink="http://www.w3.org/1999/xlink">
<g id="graph0" class="graph" transform="scale(1 1) rotate(0) translate(4 636)">
<title>%3</title>
<polygon fill="white" stroke="transparent" points="-4,4 -4,-636 1532.5,-636 1532.5,4 -4,4"/>
<text text-anchor="middle" x="764.25" y="-9.2" font-family="Times,serif" font-size="16.00">Workflow Diagram</text>
<g id="clust1" class="cluster">
<title>cluster_b&#39;d29ya2Zsb3ctZ2VuZXJhdGUtY2ktZG9jdW1lbnRhdGlvbi55bWw=&#39;</title>
<polygon fill="none" stroke="#47c507" stroke-width="4" points="8,-34 8,-624 920,-624 920,-34 8,-34"/>
<text text-anchor="middle" x="464" y="-607.2" font-family="Times,serif" font-size="16.00">Workflow</text>
</g>
<!-- b&#39;d29ya2Zsb3ctZ2VuZXJhdGUtY2ktZG9jdW1lbnRhdGlvbi55bWw=&#39; -->
<g id="node1" class="node">
<title>b&#39;d29ya2Zsb3ctZ2VuZXJhdGUtY2ktZG9jdW1lbnRhdGlvbi55bWw=&#39;</title>
<polygon fill="#c3fca6" stroke="#47c507" stroke-width="4" points="684.5,-548 319.5,-548 319.5,-484 684.5,-484 684.5,-548"/>
<polygon fill="none" stroke="#47c507" points="331,-517 331,-541 674,-541 674,-517 331,-517"/>
<text text-anchor="start" x="422" y="-526.2" font-family="Times,serif" font-weight="bold" font-size="16.00">WORKFLOW</text>
<text text-anchor="start" x="537" y="-526.2" font-family="Times,serif" font-size="16.00"> </text>
<text text-anchor="start" x="543" y="-526.2" font-family="Times,serif" font-style="italic" font-size="16.00">yaml</text>
<polygon fill="none" stroke="#47c507" points="331,-491 331,-515 674,-515 674,-491 331,-491"/>
<text text-anchor="start" x="334" y="-499.2" font-family="Times,serif" font-size="16.00">workflow&#45;generate&#45;ci&#45;documentation.yml</text>
<polygon fill="none" stroke="#47c507" points="327.5,-488 327.5,-544 676.5,-544 676.5,-488 327.5,-488"/>
</g>
<!-- b&#39;YidkMjl5YTJac2IzY3RaMlZ1WlhKaGRHVXRZMmt0Wkc5amRXMWxiblJoZEdsdmJpNTViV3c9J3VwZGF0ZV9jaV9kb2N1bWVudGF0aW9u&#39; -->
<g id="node2" class="node">
<title>b&#39;YidkMjl5YTJac2IzY3RaMlZ1WlhKaGRHVXRZMmt0Wkc5amRXMWxiblJoZEdsdmJpNTViV3c9J3VwZGF0ZV9jaV9kb2N1bWVudGF0aW9u&#39;</title>
<polygon fill="#ffc355" stroke="#cc8400" stroke-width="4" points="643,-448 361,-448 361,-384 643,-384 643,-448"/>
<polygon fill="none" stroke="#cc8400" points="372,-417 372,-441 632,-441 632,-417 372,-417"/>
<text text-anchor="start" x="470.5" y="-426.2" font-family="Times,serif" font-weight="bold" font-size="16.00">JOB</text>
<text text-anchor="start" x="506.5" y="-426.2" font-family="Times,serif" font-size="16.00"> </text>
<text text-anchor="start" x="512.5" y="-426.2" font-family="Times,serif" font-style="italic" font-size="16.00">na</text>
<polygon fill="none" stroke="#cc8400" points="372,-391 372,-415 632,-415 632,-391 372,-391"/>
<text text-anchor="start" x="391.5" y="-399.2" font-family="Times,serif" font-size="16.00">Update_Ci_Documentation</text>
<polygon fill="none" stroke="#cc8400" points="369,-388 369,-444 635,-444 635,-388 369,-388"/>
</g>
<!-- b&#39;d29ya2Zsb3ctZ2VuZXJhdGUtY2ktZG9jdW1lbnRhdGlvbi55bWw=&#39;&#45;&gt;b&#39;YidkMjl5YTJac2IzY3RaMlZ1WlhKaGRHVXRZMmt0Wkc5amRXMWxiblJoZEdsdmJpNTViV3c9J3VwZGF0ZV9jaV9kb2N1bWVudGF0aW9u&#39; -->
<g id="edge1" class="edge">
<title>b&#39;d29ya2Zsb3ctZ2VuZXJhdGUtY2ktZG9jdW1lbnRhdGlvbi55bWw=&#39;&#45;&gt;b&#39;YidkMjl5YTJac2IzY3RaMlZ1WlhKaGRHVXRZMmt0Wkc5amRXMWxiblJoZEdsdmJpNTViV3c9J3VwZGF0ZV9jaV9kb2N1bWVudGF0aW9u&#39;</title>
<path fill="none" stroke="#996300" stroke-width="4" d="M502,-483.99C502,-475.86 502,-466.96 502,-458.38"/>
<polygon fill="#996300" stroke="#996300" stroke-width="4" points="505.5,-458.14 502,-448.14 498.5,-458.14 505.5,-458.14"/>
</g>
<!-- b&#39;YidkMjl5YTJac2IzY3RaMlZ1WlhKaGRHVXRZMmt0Wkc5amRXMWxiblJoZEdsdmJpNTViV3c9J3VwZGF0ZV9jaV9kb2N1bWVudGF0aW9uX3N0ZXBfMQ==&#39; -->
<g id="node3" class="node">
<title>b&#39;YidkMjl5YTJac2IzY3RaMlZ1WlhKaGRHVXRZMmt0Wkc5amRXMWxiblJoZEdsdmJpNTViV3c9J3VwZGF0ZV9jaV9kb2N1bWVudGF0aW9uX3N0ZXBfMQ==&#39;</title>
<polygon fill="#fbe29d" stroke="#c49208" stroke-width="4" points="812,-348 530,-348 530,-284 812,-284 812,-348"/>
<polygon fill="none" stroke="#c49208" points="541,-317 541,-341 801,-341 801,-317 541,-317"/>
<text text-anchor="start" x="638.5" y="-326.2" font-family="Times,serif" font-weight="bold" font-size="16.00">STEP</text>
<text text-anchor="start" x="686.5" y="-326.2" font-family="Times,serif" font-size="16.00"> </text>
<text text-anchor="start" x="692.5" y="-326.2" font-family="Times,serif" font-style="italic" font-size="16.00">1</text>
<polygon fill="none" stroke="#c49208" points="541,-291 541,-315 801,-315 801,-291 541,-291"/>
<text text-anchor="start" x="555.5" y="-299.2" font-family="Times,serif" font-size="16.00">Generate Ci Documentation</text>
<polygon fill="none" stroke="#c49208" points="538,-288 538,-344 804,-344 804,-288 538,-288"/>
</g>
<!-- b&#39;YidkMjl5YTJac2IzY3RaMlZ1WlhKaGRHVXRZMmt0Wkc5amRXMWxiblJoZEdsdmJpNTViV3c9J3VwZGF0ZV9jaV9kb2N1bWVudGF0aW9u&#39;&#45;&gt;b&#39;YidkMjl5YTJac2IzY3RaMlZ1WlhKaGRHVXRZMmt0Wkc5amRXMWxiblJoZEdsdmJpNTViV3c9J3VwZGF0ZV9jaV9kb2N1bWVudGF0aW9uX3N0ZXBfMQ==&#39; -->
<g id="edge2" class="edge">
<title>b&#39;YidkMjl5YTJac2IzY3RaMlZ1WlhKaGRHVXRZMmt0Wkc5amRXMWxiblJoZEdsdmJpNTViV3c9J3VwZGF0ZV9jaV9kb2N1bWVudGF0aW9u&#39;&#45;&gt;b&#39;YidkMjl5YTJac2IzY3RaMlZ1WlhKaGRHVXRZMmt0Wkc5amRXMWxiblJoZEdsdmJpNTViV3c9J3VwZGF0ZV9jaV9kb2N1bWVudGF0aW9uX3N0ZXBfMQ==&#39;</title>
<path fill="none" stroke="#996300" stroke-width="4" d="M555.47,-383.99C572.27,-374.25 590.97,-363.41 608.35,-353.33"/>
<polygon fill="#996300" stroke="#996300" stroke-width="4" points="610.4,-356.19 617.3,-348.14 606.89,-350.13 610.4,-356.19"/>
</g>
<!-- b&#39;YidkMjl5YTJac2IzY3RaMlZ1WlhKaGRHVXRZMmt0Wkc5amRXMWxiblJoZEdsdmJpNTViV3c9J2NyZWF0ZV9wcg==&#39; -->
<g id="node5" class="node">
<title>b&#39;YidkMjl5YTJac2IzY3RaMlZ1WlhKaGRHVXRZMmt0Wkc5amRXMWxiblJoZEdsdmJpNTViV3c9J2NyZWF0ZV9wcg==&#39;</title>
<polygon fill="#ffc355" stroke="#cc8400" stroke-width="4" points="475,-348 193,-348 193,-284 475,-284 475,-348"/>
<polygon fill="none" stroke="#cc8400" points="204,-317 204,-341 464,-341 464,-317 204,-317"/>
<text text-anchor="start" x="302.5" y="-326.2" font-family="Times,serif" font-weight="bold" font-size="16.00">JOB</text>
<text text-anchor="start" x="338.5" y="-326.2" font-family="Times,serif" font-size="16.00"> </text>
<text text-anchor="start" x="344.5" y="-326.2" font-family="Times,serif" font-style="italic" font-size="16.00">na</text>
<polygon fill="none" stroke="#cc8400" points="204,-291 204,-315 464,-315 464,-291 204,-291"/>
<text text-anchor="start" x="293" y="-299.2" font-family="Times,serif" font-size="16.00">Create_Pr</text>
<polygon fill="none" stroke="#cc8400" points="201,-288 201,-344 467,-344 467,-288 201,-288"/>
</g>
<!-- b&#39;YidkMjl5YTJac2IzY3RaMlZ1WlhKaGRHVXRZMmt0Wkc5amRXMWxiblJoZEdsdmJpNTViV3c9J3VwZGF0ZV9jaV9kb2N1bWVudGF0aW9u&#39;&#45;&gt;b&#39;YidkMjl5YTJac2IzY3RaMlZ1WlhKaGRHVXRZMmt0Wkc5amRXMWxiblJoZEdsdmJpNTViV3c9J2NyZWF0ZV9wcg==&#39; -->
<g id="edge4" class="edge">
<title>b&#39;YidkMjl5YTJac2IzY3RaMlZ1WlhKaGRHVXRZMmt0Wkc5amRXMWxiblJoZEdsdmJpNTViV3c9J3VwZGF0ZV9jaV9kb2N1bWVudGF0aW9u&#39;&#45;&gt;b&#39;YidkMjl5YTJac2IzY3RaMlZ1WlhKaGRHVXRZMmt0Wkc5amRXMWxiblJoZEdsdmJpNTViV3c9J2NyZWF0ZV9wcg==&#39;</title>
<path fill="none" stroke="#996300" stroke-width="4" d="M448.84,-383.99C432.14,-374.25 413.56,-363.41 396.28,-353.33"/>
<polygon fill="#996300" stroke="#996300" stroke-width="4" points="397.79,-350.16 387.39,-348.14 394.26,-356.2 397.79,-350.16"/>
</g>
<!-- b&#39;YidkMjl5YTJac2IzY3RaMlZ1WlhKaGRHVXRZMmt0Wkc5amRXMWxiblJoZEdsdmJpNTViV3c9J3VwZGF0ZV9jaV9kb2N1bWVudGF0aW9uX3N0ZXBfMg==&#39; -->
<g id="node4" class="node">
<title>b&#39;YidkMjl5YTJac2IzY3RaMlZ1WlhKaGRHVXRZMmt0Wkc5amRXMWxiblJoZEdsdmJpNTViV3c9J3VwZGF0ZV9jaV9kb2N1bWVudGF0aW9uX3N0ZXBfMg==&#39;</title>
<polygon fill="#fbe29d" stroke="#c49208" stroke-width="4" points="870,-248 358,-248 358,-184 870,-184 870,-248"/>
<polygon fill="none" stroke="#c49208" points="369,-217 369,-241 859,-241 859,-217 369,-217"/>
<text text-anchor="start" x="581.5" y="-226.2" font-family="Times,serif" font-weight="bold" font-size="16.00">STEP</text>
<text text-anchor="start" x="629.5" y="-226.2" font-family="Times,serif" font-size="16.00"> </text>
<text text-anchor="start" x="635.5" y="-226.2" font-family="Times,serif" font-style="italic" font-size="16.00">2</text>
<polygon fill="none" stroke="#c49208" points="369,-191 369,-215 859,-215 859,-191 369,-191"/>
<text text-anchor="start" x="372" y="-199.2" font-family="Times,serif" font-size="16.00">Commit Documentation Result (Documents And Diagrams)</text>
<polygon fill="none" stroke="#c49208" points="366,-188 366,-244 862,-244 862,-188 366,-188"/>
</g>
<!-- b&#39;YidkMjl5YTJac2IzY3RaMlZ1WlhKaGRHVXRZMmt0Wkc5amRXMWxiblJoZEdsdmJpNTViV3c9J3VwZGF0ZV9jaV9kb2N1bWVudGF0aW9uX3N0ZXBfMQ==&#39;&#45;&gt;b&#39;YidkMjl5YTJac2IzY3RaMlZ1WlhKaGRHVXRZMmt0Wkc5amRXMWxiblJoZEdsdmJpNTViV3c9J3VwZGF0ZV9jaV9kb2N1bWVudGF0aW9uX3N0ZXBfMg==&#39; -->
<g id="edge3" class="edge">
<title>b&#39;YidkMjl5YTJac2IzY3RaMlZ1WlhKaGRHVXRZMmt0Wkc5amRXMWxiblJoZEdsdmJpNTViV3c9J3VwZGF0ZV9jaV9kb2N1bWVudGF0aW9uX3N0ZXBfMQ==&#39;&#45;&gt;b&#39;YidkMjl5YTJac2IzY3RaMlZ1WlhKaGRHVXRZMmt0Wkc5amRXMWxiblJoZEdsdmJpNTViV3c9J3VwZGF0ZV9jaV9kb2N1bWVudGF0aW9uX3N0ZXBfMg==&#39;</title>
<path fill="none" stroke="#996300" stroke-width="4" d="M652.96,-283.99C647.97,-275.41 642.49,-265.98 637.25,-256.97"/>
<polygon fill="#996300" stroke="#996300" stroke-width="4" points="640.17,-255.03 632.11,-248.14 634.12,-258.55 640.17,-255.03"/>
</g>
<!-- b&#39;Q29tcHRvbi1OSVNUL0luc3BlY3RvckA1MzcxY2ZjMjJjYWFlYTA1OTY4NmUyYzFjNjQ4NTgxNDFlYzM4NWQz&#39; -->
<g id="node8" class="node">
<title>b&#39;Q29tcHRvbi1OSVNUL0luc3BlY3RvckA1MzcxY2ZjMjJjYWFlYTA1OTY4NmUyYzFjNjQ4NTgxNDFlYzM4NWQz&#39;</title>
<polygon fill="#a6e6fc" stroke="#0795c5" stroke-width="4" points="1203.5,-248 970.5,-248 970.5,-184 1203.5,-184 1203.5,-248"/>
<polygon fill="none" stroke="#0795c5" points="982,-217 982,-241 1193,-241 1193,-217 982,-217"/>
<text text-anchor="start" x="1005" y="-226.2" font-family="Times,serif" font-weight="bold" font-size="16.00">ACTION</text>
<text text-anchor="start" x="1079" y="-226.2" font-family="Times,serif" font-size="16.00"> </text>
<text text-anchor="start" x="1085" y="-226.2" font-family="Times,serif" font-style="italic" font-size="16.00">repository</text>
<polygon fill="none" stroke="#0795c5" points="982,-191 982,-215 1193,-215 1193,-191 982,-191"/>
<text text-anchor="start" x="985" y="-199.2" font-family="Times,serif" font-size="16.00">Compton&#45;NIST/Inspector</text>
<polygon fill="none" stroke="#0795c5" points="978.5,-188 978.5,-244 1195.5,-244 1195.5,-188 978.5,-188"/>
</g>
<!-- b&#39;YidkMjl5YTJac2IzY3RaMlZ1WlhKaGRHVXRZMmt0Wkc5amRXMWxiblJoZEdsdmJpNTViV3c9J3VwZGF0ZV9jaV9kb2N1bWVudGF0aW9uX3N0ZXBfMQ==&#39;&#45;&gt;b&#39;Q29tcHRvbi1OSVNUL0luc3BlY3RvckA1MzcxY2ZjMjJjYWFlYTA1OTY4NmUyYzFjNjQ4NTgxNDFlYzM4NWQz&#39; -->
<g id="edge7" class="edge">
<title>b&#39;YidkMjl5YTJac2IzY3RaMlZ1WlhKaGRHVXRZMmt0Wkc5amRXMWxiblJoZEdsdmJpNTViV3c9J3VwZGF0ZV9jaV9kb2N1bWVudGF0aW9uX3N0ZXBfMQ==&#39;&#45;&gt;b&#39;Q29tcHRvbi1OSVNUL0luc3BlY3RvckA1MzcxY2ZjMjJjYWFlYTA1OTY4NmUyYzFjNjQ4NTgxNDFlYzM4NWQz&#39;</title>
<path fill="none" stroke="#002481" stroke-width="3" d="M802.62,-283.99C849.8,-272.88 903.07,-260.33 950.64,-249.12"/>
<polygon fill="#002481" stroke="#002481" stroke-width="3" points="952.43,-255.89 970.29,-244.49 949.22,-242.27 952.43,-255.89"/>
</g>
<!-- b&#39;c3RlZmFuendlaWZlbC9naXQtYXV0by1jb21taXQtYWN0aW9uQDNlYTZhZTE5MGJhZjQ4OWJhMDA3ZjdjOTI2MDhmMzNjZTIwZWYwNGE=&#39; -->
<g id="node9" class="node">
<title>b&#39;c3RlZmFuendlaWZlbC9naXQtYXV0by1jb21taXQtYWN0aW9uQDNlYTZhZTE5MGJhZjQ4OWJhMDA3ZjdjOTI2MDhmMzNjZTIwZWYwNGE=&#39;</title>
<polygon fill="#a6e6fc" stroke="#0795c5" stroke-width="4" points="1528.5,-148 1199.5,-148 1199.5,-84 1528.5,-84 1528.5,-148"/>
<polygon fill="none" stroke="#0795c5" points="1211,-117 1211,-141 1518,-141 1518,-117 1211,-117"/>
<text text-anchor="start" x="1282" y="-126.2" font-family="Times,serif" font-weight="bold" font-size="16.00">ACTION</text>
<text text-anchor="start" x="1356" y="-126.2" font-family="Times,serif" font-size="16.00"> </text>
<text text-anchor="start" x="1362" y="-126.2" font-family="Times,serif" font-style="italic" font-size="16.00">repository</text>
<polygon fill="none" stroke="#0795c5" points="1211,-91 1211,-115 1518,-115 1518,-91 1211,-91"/>
<text text-anchor="start" x="1214" y="-99.2" font-family="Times,serif" font-size="16.00">stefanzweifel/git&#45;auto&#45;commit&#45;action</text>
<polygon fill="none" stroke="#0795c5" points="1207.5,-88 1207.5,-144 1520.5,-144 1520.5,-88 1207.5,-88"/>
</g>
<!-- b&#39;YidkMjl5YTJac2IzY3RaMlZ1WlhKaGRHVXRZMmt0Wkc5amRXMWxiblJoZEdsdmJpNTViV3c9J3VwZGF0ZV9jaV9kb2N1bWVudGF0aW9uX3N0ZXBfMg==&#39;&#45;&gt;b&#39;c3RlZmFuendlaWZlbC9naXQtYXV0by1jb21taXQtYWN0aW9uQDNlYTZhZTE5MGJhZjQ4OWJhMDA3ZjdjOTI2MDhmMzNjZTIwZWYwNGE=&#39; -->
<g id="edge8" class="edge">
<title>b&#39;YidkMjl5YTJac2IzY3RaMlZ1WlhKaGRHVXRZMmt0Wkc5amRXMWxiblJoZEdsdmJpNTViV3c9J3VwZGF0ZV9jaV9kb2N1bWVudGF0aW9uX3N0ZXBfMg==&#39;&#45;&gt;b&#39;c3RlZmFuendlaWZlbC9naXQtYXV0by1jb21taXQtYWN0aW9uQDNlYTZhZTE5MGJhZjQ4OWJhMDA3ZjdjOTI2MDhmMzNjZTIwZWYwNGE=&#39;</title>
<path fill="none" stroke="#002481" stroke-width="3" d="M870.08,-188.7C964.48,-178.16 1072.72,-165.09 1179.33,-149.67"/>
<polygon fill="#002481" stroke="#002481" stroke-width="3" points="1180.44,-156.59 1199.21,-146.77 1178.41,-142.73 1180.44,-156.59"/>
</g>
<!-- b&#39;YidkMjl5YTJac2IzY3RaMlZ1WlhKaGRHVXRZMmt0Wkc5amRXMWxiblJoZEdsdmJpNTViV3c9J2NyZWF0ZV9wcl9zdGVwXzE=&#39; -->
<g id="node6" class="node">
<title>b&#39;YidkMjl5YTJac2IzY3RaMlZ1WlhKaGRHVXRZMmt0Wkc5amRXMWxiblJoZEdsdmJpNTViV3c9J2NyZWF0ZV9wcl9zdGVwXzE=&#39;</title>
<polygon fill="#fbe29d" stroke="#c49208" stroke-width="4" points="340,-248 58,-248 58,-184 340,-184 340,-248"/>
<polygon fill="none" stroke="#c49208" points="69,-217 69,-241 329,-241 329,-217 69,-217"/>
<text text-anchor="start" x="166.5" y="-226.2" font-family="Times,serif" font-weight="bold" font-size="16.00">STEP</text>
<text text-anchor="start" x="214.5" y="-226.2" font-family="Times,serif" font-size="16.00"> </text>
<text text-anchor="start" x="220.5" y="-226.2" font-family="Times,serif" font-style="italic" font-size="16.00">1</text>
<polygon fill="none" stroke="#c49208" points="69,-191 69,-215 329,-215 329,-191 69,-191"/>
<text text-anchor="start" x="90.5" y="-199.2" font-family="Times,serif" font-size="16.00">Check Out The Repository</text>
<polygon fill="none" stroke="#c49208" points="66,-188 66,-244 332,-244 332,-188 66,-188"/>
</g>
<!-- b&#39;YidkMjl5YTJac2IzY3RaMlZ1WlhKaGRHVXRZMmt0Wkc5amRXMWxiblJoZEdsdmJpNTViV3c9J2NyZWF0ZV9wcg==&#39;&#45;&gt;b&#39;YidkMjl5YTJac2IzY3RaMlZ1WlhKaGRHVXRZMmt0Wkc5amRXMWxiblJoZEdsdmJpNTViV3c9J2NyZWF0ZV9wcl9zdGVwXzE=&#39; -->
<g id="edge5" class="edge">
<title>b&#39;YidkMjl5YTJac2IzY3RaMlZ1WlhKaGRHVXRZMmt0Wkc5amRXMWxiblJoZEdsdmJpNTViV3c9J2NyZWF0ZV9wcg==&#39;&#45;&gt;b&#39;YidkMjl5YTJac2IzY3RaMlZ1WlhKaGRHVXRZMmt0Wkc5amRXMWxiblJoZEdsdmJpNTViV3c9J2NyZWF0ZV9wcl9zdGVwXzE=&#39;</title>
<path fill="none" stroke="#996300" stroke-width="4" d="M291.29,-283.99C278.24,-274.52 263.75,-264 250.2,-254.17"/>
<polygon fill="#996300" stroke="#996300" stroke-width="4" points="252.05,-251.18 241.9,-248.14 247.94,-256.85 252.05,-251.18"/>
</g>
<!-- b&#39;YidkMjl5YTJac2IzY3RaMlZ1WlhKaGRHVXRZMmt0Wkc5amRXMWxiblJoZEdsdmJpNTViV3c9J2NyZWF0ZV9wcl9zdGVwXzI=&#39; -->
<g id="node7" class="node">
<title>b&#39;YidkMjl5YTJac2IzY3RaMlZ1WlhKaGRHVXRZMmt0Wkc5amRXMWxiblJoZEdsdmJpNTViV3c9J2NyZWF0ZV9wcl9zdGVwXzI=&#39;</title>
<polygon fill="#fbe29d" stroke="#c49208" stroke-width="4" points="370,-148 58,-148 58,-84 370,-84 370,-148"/>
<polygon fill="none" stroke="#c49208" points="69,-117 69,-141 359,-141 359,-117 69,-117"/>
<text text-anchor="start" x="181.5" y="-126.2" font-family="Times,serif" font-weight="bold" font-size="16.00">STEP</text>
<text text-anchor="start" x="229.5" y="-126.2" font-family="Times,serif" font-size="16.00"> </text>
<text text-anchor="start" x="235.5" y="-126.2" font-family="Times,serif" font-style="italic" font-size="16.00">2</text>
<polygon fill="none" stroke="#c49208" points="69,-91 69,-115 359,-115 359,-91 69,-91"/>
<text text-anchor="start" x="72" y="-99.2" font-family="Times,serif" font-size="16.00">Create Pull Request With Updates</text>
<polygon fill="none" stroke="#c49208" points="66,-88 66,-144 362,-144 362,-88 66,-88"/>
</g>
<!-- b&#39;YidkMjl5YTJac2IzY3RaMlZ1WlhKaGRHVXRZMmt0Wkc5amRXMWxiblJoZEdsdmJpNTViV3c9J2NyZWF0ZV9wcl9zdGVwXzE=&#39;&#45;&gt;b&#39;YidkMjl5YTJac2IzY3RaMlZ1WlhKaGRHVXRZMmt0Wkc5amRXMWxiblJoZEdsdmJpNTViV3c9J2NyZWF0ZV9wcl9zdGVwXzI=&#39; -->
<g id="edge6" class="edge">
<title>b&#39;YidkMjl5YTJac2IzY3RaMlZ1WlhKaGRHVXRZMmt0Wkc5amRXMWxiblJoZEdsdmJpNTViV3c9J2NyZWF0ZV9wcl9zdGVwXzE=&#39;&#45;&gt;b&#39;YidkMjl5YTJac2IzY3RaMlZ1WlhKaGRHVXRZMmt0Wkc5amRXMWxiblJoZEdsdmJpNTViV3c9J2NyZWF0ZV9wcl9zdGVwXzI=&#39;</title>
<path fill="none" stroke="#996300" stroke-width="4" d="M203.75,-183.99C205,-175.77 206.38,-166.76 207.71,-158.09"/>
<polygon fill="#996300" stroke="#996300" stroke-width="4" points="211.18,-158.56 209.23,-148.14 204.26,-157.5 211.18,-158.56"/>
</g>
<!-- b&#39;YWN0aW9ucy9jaGVja291dEB2Mw==&#39; -->
<g id="node10" class="node">
<title>b&#39;YWN0aW9ucy9jaGVja291dEB2Mw==&#39;</title>
<polygon fill="#a6e6fc" stroke="#0795c5" stroke-width="4" points="1182,-148 970,-148 970,-84 1182,-84 1182,-148"/>
<polygon fill="none" stroke="#0795c5" points="981,-117 981,-141 1171,-141 1171,-117 981,-117"/>
<text text-anchor="start" x="993.5" y="-126.2" font-family="Times,serif" font-weight="bold" font-size="16.00">ACTION</text>
<text text-anchor="start" x="1067.5" y="-126.2" font-family="Times,serif" font-size="16.00"> </text>
<text text-anchor="start" x="1073.5" y="-126.2" font-family="Times,serif" font-style="italic" font-size="16.00">repository</text>
<polygon fill="none" stroke="#0795c5" points="981,-91 981,-115 1171,-115 1171,-91 981,-91"/>
<text text-anchor="start" x="1006" y="-99.2" font-family="Times,serif" font-size="16.00">actions/checkout</text>
<polygon fill="none" stroke="#0795c5" points="978,-88 978,-144 1174,-144 1174,-88 978,-88"/>
</g>
<!-- b&#39;YidkMjl5YTJac2IzY3RaMlZ1WlhKaGRHVXRZMmt0Wkc5amRXMWxiblJoZEdsdmJpNTViV3c9J2NyZWF0ZV9wcl9zdGVwXzE=&#39;&#45;&gt;b&#39;YWN0aW9ucy9jaGVja291dEB2Mw==&#39; -->
<g id="edge9" class="edge">
<title>b&#39;YidkMjl5YTJac2IzY3RaMlZ1WlhKaGRHVXRZMmt0Wkc5amRXMWxiblJoZEdsdmJpNTViV3c9J2NyZWF0ZV9wcl9zdGVwXzE=&#39;&#45;&gt;b&#39;YWN0aW9ucy9jaGVja291dEB2Mw==&#39;</title>
<path fill="none" stroke="#002481" stroke-width="3" d="M340.23,-185.23C343.17,-184.8 346.1,-184.39 349,-184 602.79,-150 670.17,-181.67 924,-148 932.45,-146.88 941.14,-145.56 949.87,-144.11"/>
<polygon fill="#002481" stroke="#002481" stroke-width="3" points="951.12,-151 969.6,-140.64 948.69,-137.21 951.12,-151"/>
</g>
</g>
</svg>
