<?xml version="1.0" encoding="UTF-8" standalone="no"?>
<!DOCTYPE svg PUBLIC "-//W3C//DTD SVG 1.1//EN"
 "http://www.w3.org/Graphics/SVG/1.1/DTD/svg11.dtd">
<!-- Generated by graphviz version 2.43.0 (0)
 -->
<!-- Title: %3 Pages: 1 -->
<svg width="682pt" height="904pt"
 viewBox="0.00 0.00 681.50 904.00" xmlns="http://www.w3.org/2000/svg" xmlns:xlink="http://www.w3.org/1999/xlink">
<g id="graph0" class="graph" transform="scale(1 1) rotate(0) translate(4 900)">
<title>%3</title>
<polygon fill="white" stroke="transparent" points="-4,4 -4,-900 677.5,-900 677.5,4 -4,4"/>
<text text-anchor="middle" x="336.75" y="-9.2" font-family="Times,serif" font-size="16.00">Workflow Diagram</text>
<g id="clust1" class="cluster">
<title>cluster_b&#39;cGFja2FnZS1yZWxlYXNlLnltbA==&#39;</title>
<polygon fill="none" stroke="#47c507" stroke-width="4" points="8,-98 8,-888 408,-888 408,-98 8,-98"/>
<text text-anchor="middle" x="208" y="-871.2" font-family="Times,serif" font-size="16.00">Workflow</text>
</g>
<!-- b&#39;cGFja2FnZS1yZWxlYXNlLnltbA==&#39; -->
<g id="node1" class="node">
<title>b&#39;cGFja2FnZS1yZWxlYXNlLnltbA==&#39;</title>
<polygon fill="#c3fca6" stroke="#47c507" stroke-width="4" points="306.5,-812 109.5,-812 109.5,-748 306.5,-748 306.5,-812"/>
<polygon fill="none" stroke="#47c507" points="121,-781 121,-805 296,-805 296,-781 121,-781"/>
<text text-anchor="start" x="128" y="-790.2" font-family="Times,serif" font-weight="bold" font-size="16.00">WORKFLOW</text>
<text text-anchor="start" x="243" y="-790.2" font-family="Times,serif" font-size="16.00"> </text>
<text text-anchor="start" x="249" y="-790.2" font-family="Times,serif" font-style="italic" font-size="16.00">yaml</text>
<polygon fill="none" stroke="#47c507" points="121,-755 121,-779 296,-779 296,-755 121,-755"/>
<text text-anchor="start" x="124" y="-763.2" font-family="Times,serif" font-size="16.00">package&#45;release.yml</text>
<polygon fill="none" stroke="#47c507" points="117.5,-752 117.5,-808 298.5,-808 298.5,-752 117.5,-752"/>
</g>
<!-- b&#39;YidjR0ZqYTJGblpTMXlaV3hsWVhObExubHRiQT09J3RhZ2dlZC1yZWxlYXNl&#39; -->
<g id="node4" class="node">
<title>b&#39;YidjR0ZqYTJGblpTMXlaV3hsWVhObExubHRiQT09J3RhZ2dlZC1yZWxlYXNl&#39;</title>
<polygon fill="#ffc355" stroke="#cc8400" stroke-width="4" points="357.5,-712 58.5,-712 58.5,-648 357.5,-648 357.5,-712"/>
<polygon fill="none" stroke="#cc8400" points="70,-681 70,-705 347,-705 347,-681 70,-681"/>
<text text-anchor="start" x="177" y="-690.2" font-family="Times,serif" font-weight="bold" font-size="16.00">JOB</text>
<text text-anchor="start" x="213" y="-690.2" font-family="Times,serif" font-size="16.00"> </text>
<text text-anchor="start" x="219" y="-690.2" font-family="Times,serif" font-style="italic" font-size="16.00">na</text>
<polygon fill="none" stroke="#cc8400" points="70,-655 70,-679 347,-679 347,-655 70,-655"/>
<text text-anchor="start" x="73" y="-663.2" font-family="Times,serif" font-size="16.00">Tagged Release (tagged&#45;release)</text>
<polygon fill="none" stroke="#cc8400" points="66.5,-652 66.5,-708 349.5,-708 349.5,-652 66.5,-652"/>
</g>
<!-- b&#39;cGFja2FnZS1yZWxlYXNlLnltbA==&#39;&#45;&gt;b&#39;YidjR0ZqYTJGblpTMXlaV3hsWVhObExubHRiQT09J3RhZ2dlZC1yZWxlYXNl&#39; -->
<g id="edge1" class="edge">
<title>b&#39;cGFja2FnZS1yZWxlYXNlLnltbA==&#39;&#45;&gt;b&#39;YidjR0ZqYTJGblpTMXlaV3hsWVhObExubHRiQT09J3RhZ2dlZC1yZWxlYXNl&#39;</title>
<path fill="none" stroke="#996300" stroke-width="4" d="M208,-747.99C208,-739.86 208,-730.96 208,-722.38"/>
<polygon fill="#996300" stroke="#996300" stroke-width="4" points="211.5,-722.14 208,-712.14 204.5,-722.14 211.5,-722.14"/>
</g>
<!-- b&#39;YWN0aW9ucy9jaGVja291dEAyNTQxYjEyOTRkMjcwNGIwOTY0ODEzMzM3ZjMzYjI5MWQzZjg1OTZi&#39; -->
<g id="node2" class="node">
<title>b&#39;YWN0aW9ucy9jaGVja291dEAyNTQxYjEyOTRkMjcwNGIwOTY0ODEzMzM3ZjMzYjI5MWQzZjg1OTZi&#39;</title>
<polygon fill="#a6e6fc" stroke="#0795c5" stroke-width="4" points="651.5,-512 458.5,-512 458.5,-448 651.5,-448 651.5,-512"/>
<polygon fill="none" stroke="#0795c5" points="470,-481 470,-505 641,-505 641,-481 470,-481"/>
<text text-anchor="start" x="473" y="-490.2" font-family="Times,serif" font-weight="bold" font-size="16.00">ACTION</text>
<text text-anchor="start" x="547" y="-490.2" font-family="Times,serif" font-size="16.00"> </text>
<text text-anchor="start" x="553" y="-490.2" font-family="Times,serif" font-style="italic" font-size="16.00">repository</text>
<polygon fill="none" stroke="#0795c5" points="470,-455 470,-479 641,-479 641,-455 470,-455"/>
<text text-anchor="start" x="485.5" y="-463.2" font-family="Times,serif" font-size="16.00">actions/checkout</text>
<polygon fill="none" stroke="#0795c5" points="466.5,-452 466.5,-508 643.5,-508 643.5,-452 466.5,-452"/>
</g>
<!-- b&#39;YWN0aW9ucy91cGxvYWQtYXJ0aWZhY3RAM2NlYTUzNzIyMzc4MTllZDAwMTk3YWZlNTMwZjVhN2VhM2U4MDVjOA==&#39; -->
<g id="node3" class="node">
<title>b&#39;YWN0aW9ucy91cGxvYWQtYXJ0aWZhY3RAM2NlYTUzNzIyMzc4MTllZDAwMTk3YWZlNTMwZjVhN2VhM2U4MDVjOA==&#39;</title>
<polygon fill="#a6e6fc" stroke="#0795c5" stroke-width="4" points="673.5,-212 458.5,-212 458.5,-148 673.5,-148 673.5,-212"/>
<polygon fill="none" stroke="#0795c5" points="470,-181 470,-205 663,-205 663,-181 470,-181"/>
<text text-anchor="start" x="484" y="-190.2" font-family="Times,serif" font-weight="bold" font-size="16.00">ACTION</text>
<text text-anchor="start" x="558" y="-190.2" font-family="Times,serif" font-size="16.00"> </text>
<text text-anchor="start" x="564" y="-190.2" font-family="Times,serif" font-style="italic" font-size="16.00">repository</text>
<polygon fill="none" stroke="#0795c5" points="470,-155 470,-179 663,-179 663,-155 470,-155"/>
<text text-anchor="start" x="473" y="-163.2" font-family="Times,serif" font-size="16.00">actions/upload&#45;artifact</text>
<polygon fill="none" stroke="#0795c5" points="466.5,-152 466.5,-208 665.5,-208 665.5,-152 466.5,-152"/>
</g>
<!-- b&#39;YidjR0ZqYTJGblpTMXlaV3hsWVhObExubHRiQT09J3RhZ2dlZC1yZWxlYXNlX3N0ZXBfMQ==&#39; -->
<g id="node5" class="node">
<title>b&#39;YidjR0ZqYTJGblpTMXlaV3hsWVhObExubHRiQT09J3RhZ2dlZC1yZWxlYXNlX3N0ZXBfMQ==&#39;</title>
<polygon fill="#fbe29d" stroke="#c49208" stroke-width="4" points="357.5,-612 180.5,-612 180.5,-548 357.5,-548 357.5,-612"/>
<polygon fill="none" stroke="#c49208" points="192,-581 192,-605 347,-605 347,-581 192,-581"/>
<text text-anchor="start" x="237" y="-590.2" font-family="Times,serif" font-weight="bold" font-size="16.00">STEP</text>
<text text-anchor="start" x="285" y="-590.2" font-family="Times,serif" font-size="16.00"> </text>
<text text-anchor="start" x="291" y="-590.2" font-family="Times,serif" font-style="italic" font-size="16.00">1</text>
<polygon fill="none" stroke="#c49208" points="192,-555 192,-579 347,-579 347,-555 192,-555"/>
<text text-anchor="start" x="201.5" y="-563.2" font-family="Times,serif" font-size="16.00">Step (Unnamed)</text>
<polygon fill="none" stroke="#c49208" points="188.5,-552 188.5,-608 349.5,-608 349.5,-552 188.5,-552"/>
</g>
<!-- b&#39;YidjR0ZqYTJGblpTMXlaV3hsWVhObExubHRiQT09J3RhZ2dlZC1yZWxlYXNl&#39;&#45;&gt;b&#39;YidjR0ZqYTJGblpTMXlaV3hsWVhObExubHRiQT09J3RhZ2dlZC1yZWxlYXNlX3N0ZXBfMQ==&#39; -->
<g id="edge2" class="edge">
<title>b&#39;YidjR0ZqYTJGblpTMXlaV3hsWVhObExubHRiQT09J3RhZ2dlZC1yZWxlYXNl&#39;&#45;&gt;b&#39;YidjR0ZqYTJGblpTMXlaV3hsWVhObExubHRiQT09J3RhZ2dlZC1yZWxlYXNlX3N0ZXBfMQ==&#39;</title>
<path fill="none" stroke="#996300" stroke-width="4" d="M227.3,-647.99C232.7,-639.32 238.64,-629.78 244.3,-620.68"/>
<polygon fill="#996300" stroke="#996300" stroke-width="4" points="247.3,-622.48 249.62,-612.14 241.36,-618.78 247.3,-622.48"/>
</g>
<!-- b&#39;YidjR0ZqYTJGblpTMXlaV3hsWVhObExubHRiQT09J3RhZ2dlZC1yZWxlYXNlX3N0ZXBfMQ==&#39;&#45;&gt;b&#39;YWN0aW9ucy9jaGVja291dEAyNTQxYjEyOTRkMjcwNGIwOTY0ODEzMzM3ZjMzYjI5MWQzZjg1OTZi&#39; -->
<g id="edge7" class="edge">
<title>b&#39;YidjR0ZqYTJGblpTMXlaV3hsWVhObExubHRiQT09J3RhZ2dlZC1yZWxlYXNlX3N0ZXBfMQ==&#39;&#45;&gt;b&#39;YWN0aW9ucy9jaGVja291dEAyNTQxYjEyOTRkMjcwNGIwOTY0ODEzMzM3ZjMzYjI5MWQzZjg1OTZi&#39;</title>
<path fill="none" stroke="#002481" stroke-width="3" d="M357.53,-548.66C385.26,-539.16 416.19,-528.56 445.2,-518.62"/>
<polygon fill="#002481" stroke="#002481" stroke-width="3" points="447.77,-525.14 464.42,-512.04 443.23,-511.9 447.77,-525.14"/>
</g>
<!-- b&#39;YidjR0ZqYTJGblpTMXlaV3hsWVhObExubHRiQT09J3RhZ2dlZC1yZWxlYXNlX3N0ZXBfMg==&#39; -->
<g id="node6" class="node">
<title>b&#39;YidjR0ZqYTJGblpTMXlaV3hsWVhObExubHRiQT09J3RhZ2dlZC1yZWxlYXNlX3N0ZXBfMg==&#39;</title>
<polygon fill="#fbe29d" stroke="#c49208" stroke-width="4" points="357.5,-512 180.5,-512 180.5,-448 357.5,-448 357.5,-512"/>
<polygon fill="none" stroke="#c49208" points="192,-481 192,-505 347,-505 347,-481 192,-481"/>
<text text-anchor="start" x="237" y="-490.2" font-family="Times,serif" font-weight="bold" font-size="16.00">STEP</text>
<text text-anchor="start" x="285" y="-490.2" font-family="Times,serif" font-size="16.00"> </text>
<text text-anchor="start" x="291" y="-490.2" font-family="Times,serif" font-style="italic" font-size="16.00">2</text>
<polygon fill="none" stroke="#c49208" points="192,-455 192,-479 347,-479 347,-455 192,-455"/>
<text text-anchor="start" x="237" y="-463.2" font-family="Times,serif" font-size="16.00">Set Env</text>
<polygon fill="none" stroke="#c49208" points="188.5,-452 188.5,-508 349.5,-508 349.5,-452 188.5,-452"/>
</g>
<!-- b&#39;YidjR0ZqYTJGblpTMXlaV3hsWVhObExubHRiQT09J3RhZ2dlZC1yZWxlYXNlX3N0ZXBfMQ==&#39;&#45;&gt;b&#39;YidjR0ZqYTJGblpTMXlaV3hsWVhObExubHRiQT09J3RhZ2dlZC1yZWxlYXNlX3N0ZXBfMg==&#39; -->
<g id="edge3" class="edge">
<title>b&#39;YidjR0ZqYTJGblpTMXlaV3hsWVhObExubHRiQT09J3RhZ2dlZC1yZWxlYXNlX3N0ZXBfMQ==&#39;&#45;&gt;b&#39;YidjR0ZqYTJGblpTMXlaV3hsWVhObExubHRiQT09J3RhZ2dlZC1yZWxlYXNlX3N0ZXBfMg==&#39;</title>
<path fill="none" stroke="#996300" stroke-width="4" d="M269,-547.99C269,-539.86 269,-530.96 269,-522.38"/>
<polygon fill="#996300" stroke="#996300" stroke-width="4" points="272.5,-522.14 269,-512.14 265.5,-522.14 272.5,-522.14"/>
</g>
<!-- b&#39;YidjR0ZqYTJGblpTMXlaV3hsWVhObExubHRiQT09J3RhZ2dlZC1yZWxlYXNlX3N0ZXBfMw==&#39; -->
<g id="node7" class="node">
<title>b&#39;YidjR0ZqYTJGblpTMXlaV3hsWVhObExubHRiQT09J3RhZ2dlZC1yZWxlYXNlX3N0ZXBfMw==&#39;</title>
<polygon fill="#fbe29d" stroke="#c49208" stroke-width="4" points="357.5,-412 180.5,-412 180.5,-348 357.5,-348 357.5,-412"/>
<polygon fill="none" stroke="#c49208" points="192,-381 192,-405 347,-405 347,-381 192,-381"/>
<text text-anchor="start" x="237" y="-390.2" font-family="Times,serif" font-weight="bold" font-size="16.00">STEP</text>
<text text-anchor="start" x="285" y="-390.2" font-family="Times,serif" font-size="16.00"> </text>
<text text-anchor="start" x="291" y="-390.2" font-family="Times,serif" font-style="italic" font-size="16.00">3</text>
<polygon fill="none" stroke="#c49208" points="192,-355 192,-379 347,-379 347,-355 192,-355"/>
<text text-anchor="start" x="200" y="-363.2" font-family="Times,serif" font-size="16.00">Package Release</text>
<polygon fill="none" stroke="#c49208" points="188.5,-352 188.5,-408 349.5,-408 349.5,-352 188.5,-352"/>
</g>
<!-- b&#39;YidjR0ZqYTJGblpTMXlaV3hsWVhObExubHRiQT09J3RhZ2dlZC1yZWxlYXNlX3N0ZXBfMg==&#39;&#45;&gt;b&#39;YidjR0ZqYTJGblpTMXlaV3hsWVhObExubHRiQT09J3RhZ2dlZC1yZWxlYXNlX3N0ZXBfMw==&#39; -->
<g id="edge4" class="edge">
<title>b&#39;YidjR0ZqYTJGblpTMXlaV3hsWVhObExubHRiQT09J3RhZ2dlZC1yZWxlYXNlX3N0ZXBfMg==&#39;&#45;&gt;b&#39;YidjR0ZqYTJGblpTMXlaV3hsWVhObExubHRiQT09J3RhZ2dlZC1yZWxlYXNlX3N0ZXBfMw==&#39;</title>
<path fill="none" stroke="#996300" stroke-width="4" d="M269,-447.99C269,-439.86 269,-430.96 269,-422.38"/>
<polygon fill="#996300" stroke="#996300" stroke-width="4" points="272.5,-422.14 269,-412.14 265.5,-422.14 272.5,-422.14"/>
</g>
<!-- b&#39;YidjR0ZqYTJGblpTMXlaV3hsWVhObExubHRiQT09J3RhZ2dlZC1yZWxlYXNlX3N0ZXBfNA==&#39; -->
<g id="node8" class="node">
<title>b&#39;YidjR0ZqYTJGblpTMXlaV3hsWVhObExubHRiQT09J3RhZ2dlZC1yZWxlYXNlX3N0ZXBfNA==&#39;</title>
<polygon fill="#fbe29d" stroke="#c49208" stroke-width="4" points="357.5,-312 180.5,-312 180.5,-248 357.5,-248 357.5,-312"/>
<polygon fill="none" stroke="#c49208" points="192,-281 192,-305 347,-305 347,-281 192,-281"/>
<text text-anchor="start" x="237" y="-290.2" font-family="Times,serif" font-weight="bold" font-size="16.00">STEP</text>
<text text-anchor="start" x="285" y="-290.2" font-family="Times,serif" font-size="16.00"> </text>
<text text-anchor="start" x="291" y="-290.2" font-family="Times,serif" font-style="italic" font-size="16.00">4</text>
<polygon fill="none" stroke="#c49208" points="192,-255 192,-279 347,-279 347,-255 192,-255"/>
<text text-anchor="start" x="201.5" y="-263.2" font-family="Times,serif" font-size="16.00">Step (Unnamed)</text>
<polygon fill="none" stroke="#c49208" points="188.5,-252 188.5,-308 349.5,-308 349.5,-252 188.5,-252"/>
</g>
<!-- b&#39;YidjR0ZqYTJGblpTMXlaV3hsWVhObExubHRiQT09J3RhZ2dlZC1yZWxlYXNlX3N0ZXBfMw==&#39;&#45;&gt;b&#39;YidjR0ZqYTJGblpTMXlaV3hsWVhObExubHRiQT09J3RhZ2dlZC1yZWxlYXNlX3N0ZXBfNA==&#39; -->
<g id="edge5" class="edge">
<title>b&#39;YidjR0ZqYTJGblpTMXlaV3hsWVhObExubHRiQT09J3RhZ2dlZC1yZWxlYXNlX3N0ZXBfMw==&#39;&#45;&gt;b&#39;YidjR0ZqYTJGblpTMXlaV3hsWVhObExubHRiQT09J3RhZ2dlZC1yZWxlYXNlX3N0ZXBfNA==&#39;</title>
<path fill="none" stroke="#996300" stroke-width="4" d="M269,-347.99C269,-339.86 269,-330.96 269,-322.38"/>
<polygon fill="#996300" stroke="#996300" stroke-width="4" points="272.5,-322.14 269,-312.14 265.5,-322.14 272.5,-322.14"/>
</g>
<!-- b&#39;cGFja2FnZS1yZWxlYXNlLnNo&#39; -->
<g id="node10" class="node">
<title>b&#39;cGFja2FnZS1yZWxlYXNlLnNo&#39;</title>
<polygon fill="#f89f9b" stroke="#bf150d" stroke-width="4" points="645.5,-312 458.5,-312 458.5,-248 645.5,-248 645.5,-312"/>
<polygon fill="none" stroke="#bf150d" points="470,-281 470,-305 635,-305 635,-281 470,-281"/>
<text text-anchor="start" x="505" y="-290.2" font-family="Times,serif" font-weight="bold" font-size="16.00">SCRIPT</text>
<text text-anchor="start" x="575" y="-290.2" font-family="Times,serif" font-size="16.00"> </text>
<text text-anchor="start" x="581" y="-290.2" font-family="Times,serif" font-style="italic" font-size="16.00">sh</text>
<polygon fill="none" stroke="#bf150d" points="470,-255 470,-279 635,-279 635,-255 470,-255"/>
<text text-anchor="start" x="473" y="-263.2" font-family="Times,serif" font-size="16.00">package&#45;release.sh</text>
<polygon fill="none" stroke="#bf150d" points="466.5,-252 466.5,-308 637.5,-308 637.5,-252 466.5,-252"/>
</g>
<!-- b&#39;YidjR0ZqYTJGblpTMXlaV3hsWVhObExubHRiQT09J3RhZ2dlZC1yZWxlYXNlX3N0ZXBfMw==&#39;&#45;&gt;b&#39;cGFja2FnZS1yZWxlYXNlLnNo&#39; -->
<g id="edge8" class="edge">
<title>b&#39;YidjR0ZqYTJGblpTMXlaV3hsWVhObExubHRiQT09J3RhZ2dlZC1yZWxlYXNlX3N0ZXBfMw==&#39;&#45;&gt;b&#39;cGFja2FnZS1yZWxlYXNlLnNo&#39;</title>
<path fill="none" stroke="#002481" stroke-width="3" d="M357.77,-348.26C384.77,-338.91 414.75,-328.53 442.93,-318.77"/>
<polygon fill="#002481" stroke="#002481" stroke-width="3" points="445.48,-325.29 462.09,-312.14 440.9,-312.07 445.48,-325.29"/>
</g>
<!-- b&#39;YidjR0ZqYTJGblpTMXlaV3hsWVhObExubHRiQT09J3RhZ2dlZC1yZWxlYXNlX3N0ZXBfNA==&#39;&#45;&gt;b&#39;YWN0aW9ucy91cGxvYWQtYXJ0aWZhY3RAM2NlYTUzNzIyMzc4MTllZDAwMTk3YWZlNTMwZjVhN2VhM2U4MDVjOA==&#39; -->
<g id="edge9" class="edge">
<title>b&#39;YidjR0ZqYTJGblpTMXlaV3hsWVhObExubHRiQT09J3RhZ2dlZC1yZWxlYXNlX3N0ZXBfNA==&#39;&#45;&gt;b&#39;YWN0aW9ucy91cGxvYWQtYXJ0aWZhY3RAM2NlYTUzNzIyMzc4MTllZDAwMTk3YWZlNTMwZjVhN2VhM2U4MDVjOA==&#39;</title>
<path fill="none" stroke="#002481" stroke-width="3" d="M357.71,-249.73C387.5,-239.9 421.16,-228.79 452.58,-218.42"/>
<polygon fill="#002481" stroke="#002481" stroke-width="3" points="455.01,-224.99 471.81,-212.08 450.62,-211.7 455.01,-224.99"/>
</g>
<!-- b&#39;YidjR0ZqYTJGblpTMXlaV3hsWVhObExubHRiQT09J3RhZ2dlZC1yZWxlYXNlX3N0ZXBfNQ==&#39; -->
<g id="node9" class="node">
<title>b&#39;YidjR0ZqYTJGblpTMXlaV3hsWVhObExubHRiQT09J3RhZ2dlZC1yZWxlYXNlX3N0ZXBfNQ==&#39;</title>
<polygon fill="#fbe29d" stroke="#c49208" stroke-width="4" points="357.5,-212 180.5,-212 180.5,-148 357.5,-148 357.5,-212"/>
<polygon fill="none" stroke="#c49208" points="192,-181 192,-205 347,-205 347,-181 192,-181"/>
<text text-anchor="start" x="237" y="-190.2" font-family="Times,serif" font-weight="bold" font-size="16.00">STEP</text>
<text text-anchor="start" x="285" y="-190.2" font-family="Times,serif" font-size="16.00"> </text>
<text text-anchor="start" x="291" y="-190.2" font-family="Times,serif" font-style="italic" font-size="16.00">5</text>
<polygon fill="none" stroke="#c49208" points="192,-155 192,-179 347,-179 347,-155 192,-155"/>
<text text-anchor="start" x="201.5" y="-163.2" font-family="Times,serif" font-size="16.00">Step (Unnamed)</text>
<polygon fill="none" stroke="#c49208" points="188.5,-152 188.5,-208 349.5,-208 349.5,-152 188.5,-152"/>
</g>
<!-- b&#39;YidjR0ZqYTJGblpTMXlaV3hsWVhObExubHRiQT09J3RhZ2dlZC1yZWxlYXNlX3N0ZXBfNA==&#39;&#45;&gt;b&#39;YidjR0ZqYTJGblpTMXlaV3hsWVhObExubHRiQT09J3RhZ2dlZC1yZWxlYXNlX3N0ZXBfNQ==&#39; -->
<g id="edge6" class="edge">
<title>b&#39;YidjR0ZqYTJGblpTMXlaV3hsWVhObExubHRiQT09J3RhZ2dlZC1yZWxlYXNlX3N0ZXBfNA==&#39;&#45;&gt;b&#39;YidjR0ZqYTJGblpTMXlaV3hsWVhObExubHRiQT09J3RhZ2dlZC1yZWxlYXNlX3N0ZXBfNQ==&#39;</title>
<path fill="none" stroke="#996300" stroke-width="4" d="M269,-247.99C269,-239.86 269,-230.96 269,-222.38"/>
<polygon fill="#996300" stroke="#996300" stroke-width="4" points="272.5,-222.14 269,-212.14 265.5,-222.14 272.5,-222.14"/>
</g>
<!-- b&#39;bmNpcG9sbG8vcmVsZWFzZS1hY3Rpb25ANThhZTczYjM2MDQ1NjUzMmFhZmQ1OGVlMTcwYzA0NWFiYmVhZWUzNw==&#39; -->
<g id="node11" class="node">
<title>b&#39;bmNpcG9sbG8vcmVsZWFzZS1hY3Rpb25ANThhZTczYjM2MDQ1NjUzMmFhZmQ1OGVlMTcwYzA0NWFiYmVhZWUzNw==&#39;</title>
<polygon fill="#a6e6fc" stroke="#0795c5" stroke-width="4" points="376.5,-90 161.5,-90 161.5,-26 376.5,-26 376.5,-90"/>
<polygon fill="none" stroke="#0795c5" points="173,-59 173,-83 366,-83 366,-59 173,-59"/>
<text text-anchor="start" x="187" y="-68.2" font-family="Times,serif" font-weight="bold" font-size="16.00">ACTION</text>
<text text-anchor="start" x="261" y="-68.2" font-family="Times,serif" font-size="16.00"> </text>
<text text-anchor="start" x="267" y="-68.2" font-family="Times,serif" font-style="italic" font-size="16.00">repository</text>
<polygon fill="none" stroke="#0795c5" points="173,-33 173,-57 366,-57 366,-33 173,-33"/>
<text text-anchor="start" x="176" y="-41.2" font-family="Times,serif" font-size="16.00">ncipollo/release&#45;action</text>
<polygon fill="none" stroke="#0795c5" points="169.5,-30 169.5,-86 368.5,-86 368.5,-30 169.5,-30"/>
</g>
<!-- b&#39;YidjR0ZqYTJGblpTMXlaV3hsWVhObExubHRiQT09J3RhZ2dlZC1yZWxlYXNlX3N0ZXBfNQ==&#39;&#45;&gt;b&#39;bmNpcG9sbG8vcmVsZWFzZS1hY3Rpb25ANThhZTczYjM2MDQ1NjUzMmFhZmQ1OGVlMTcwYzA0NWFiYmVhZWUzNw==&#39; -->
<g id="edge10" class="edge">
<title>b&#39;YidjR0ZqYTJGblpTMXlaV3hsWVhObExubHRiQT09J3RhZ2dlZC1yZWxlYXNlX3N0ZXBfNQ==&#39;&#45;&gt;b&#39;bmNpcG9sbG8vcmVsZWFzZS1hY3Rpb25ANThhZTczYjM2MDQ1NjUzMmFhZmQ1OGVlMTcwYzA0NWFiYmVhZWUzNw==&#39;</title>
<path fill="none" stroke="#002481" stroke-width="3" d="M269,-147.78C269,-136.4 269,-123.19 269,-110.51"/>
<polygon fill="#002481" stroke="#002481" stroke-width="3" points="276,-110.06 269,-90.06 262,-110.06 276,-110.06"/>
</g>
</g>
</svg>
