<?xml version="1.0" encoding="UTF-8" standalone="no"?>
<!DOCTYPE svg PUBLIC "-//W3C//DTD SVG 1.1//EN"
 "http://www.w3.org/Graphics/SVG/1.1/DTD/svg11.dtd">
<!-- Generated by graphviz version 2.43.0 (0)
 -->
<!-- Title: %3 Pages: 1 -->
<svg width="1126pt" height="1004pt"
 viewBox="0.00 0.00 1125.50 1004.00" xmlns="http://www.w3.org/2000/svg" xmlns:xlink="http://www.w3.org/1999/xlink">
<g id="graph0" class="graph" transform="scale(1 1) rotate(0) translate(4 1000)">
<title>%3</title>
<polygon fill="white" stroke="transparent" points="-4,4 -4,-1000 1121.5,-1000 1121.5,4 -4,4"/>
<text text-anchor="middle" x="558.75" y="-9.2" font-family="Times,serif" font-size="16.00">Workflow Diagram</text>
<g id="clust1" class="cluster">
<title>cluster_b&#39;c3RhdHVzLWNpLWNkLnltbA==&#39;</title>
<polygon fill="none" stroke="#47c507" stroke-width="4" points="8,-98 8,-988 656,-988 656,-98 8,-98"/>
<text text-anchor="middle" x="332" y="-971.2" font-family="Times,serif" font-size="16.00">Workflow</text>
</g>
<!-- b&#39;c3RhdHVzLWNpLWNkLnltbA==&#39; -->
<g id="node1" class="node">
<title>b&#39;c3RhdHVzLWNpLWNkLnltbA==&#39;</title>
<polygon fill="#c3fca6" stroke="#47c507" stroke-width="4" points="542.5,-912 215.5,-912 215.5,-848 542.5,-848 542.5,-912"/>
<polygon fill="none" stroke="#47c507" points="227,-881 227,-905 532,-905 532,-881 227,-881"/>
<text text-anchor="start" x="299" y="-890.2" font-family="Times,serif" font-weight="bold" font-size="16.00">WORKFLOW</text>
<text text-anchor="start" x="414" y="-890.2" font-family="Times,serif" font-size="16.00"> </text>
<text text-anchor="start" x="420" y="-890.2" font-family="Times,serif" font-style="italic" font-size="16.00">yaml</text>
<polygon fill="none" stroke="#47c507" points="227,-855 227,-879 532,-879 532,-855 227,-855"/>
<text text-anchor="start" x="314.5" y="-863.2" font-family="Times,serif" font-size="16.00">status&#45;ci&#45;cd.yml</text>
<polygon fill="none" stroke="#47c507" points="223.5,-852 223.5,-908 534.5,-908 534.5,-852 223.5,-852"/>
</g>
<!-- b&#39;YidjM1JoZEhWekxXTnBMV05rTG5sdGJBPT0ndmFsaWRhdGUtcmVwby1tYXJrZG93bg==&#39; -->
<g id="node6" class="node">
<title>b&#39;YidjM1JoZEhWekxXTnBMV05rTG5sdGJBPT0ndmFsaWRhdGUtcmVwby1tYXJrZG93bg==&#39;</title>
<polygon fill="#ffc355" stroke="#cc8400" stroke-width="4" points="605.5,-812 152.5,-812 152.5,-748 605.5,-748 605.5,-812"/>
<polygon fill="none" stroke="#cc8400" points="164,-781 164,-805 595,-805 595,-781 164,-781"/>
<text text-anchor="start" x="348" y="-790.2" font-family="Times,serif" font-weight="bold" font-size="16.00">JOB</text>
<text text-anchor="start" x="384" y="-790.2" font-family="Times,serif" font-size="16.00"> </text>
<text text-anchor="start" x="390" y="-790.2" font-family="Times,serif" font-style="italic" font-size="16.00">na</text>
<polygon fill="none" stroke="#cc8400" points="164,-755 164,-779 595,-779 595,-755 164,-755"/>
<text text-anchor="start" x="167" y="-763.2" font-family="Times,serif" font-size="16.00">Validate Repo Markdown (validate&#45;repo&#45;markdown)</text>
<polygon fill="none" stroke="#cc8400" points="160.5,-752 160.5,-808 597.5,-808 597.5,-752 160.5,-752"/>
</g>
<!-- b&#39;c3RhdHVzLWNpLWNkLnltbA==&#39;&#45;&gt;b&#39;YidjM1JoZEhWekxXTnBMV05rTG5sdGJBPT0ndmFsaWRhdGUtcmVwby1tYXJrZG93bg==&#39; -->
<g id="edge1" class="edge">
<title>b&#39;c3RhdHVzLWNpLWNkLnltbA==&#39;&#45;&gt;b&#39;YidjM1JoZEhWekxXTnBMV05rTG5sdGJBPT0ndmFsaWRhdGUtcmVwby1tYXJrZG93bg==&#39;</title>
<path fill="none" stroke="#996300" stroke-width="4" d="M379,-847.99C379,-839.86 379,-830.96 379,-822.38"/>
<polygon fill="#996300" stroke="#996300" stroke-width="4" points="382.5,-822.14 379,-812.14 375.5,-822.14 382.5,-822.14"/>
</g>
<!-- b&#39;d29ya2Zsb3ctZ2VuZXJhdGUtd2Vic2l0ZS55bWw=&#39; -->
<g id="node2" class="node">
<title>b&#39;d29ya2Zsb3ctZ2VuZXJhdGUtd2Vic2l0ZS55bWw=&#39;</title>
<polygon fill="#c3fca6" stroke="#47c507" stroke-width="4" points="479.5,-90 152.5,-90 152.5,-26 479.5,-26 479.5,-90"/>
<polygon fill="none" stroke="#47c507" points="164,-59 164,-83 469,-83 469,-59 164,-59"/>
<text text-anchor="start" x="236" y="-68.2" font-family="Times,serif" font-weight="bold" font-size="16.00">WORKFLOW</text>
<text text-anchor="start" x="351" y="-68.2" font-family="Times,serif" font-size="16.00"> </text>
<text text-anchor="start" x="357" y="-68.2" font-family="Times,serif" font-style="italic" font-size="16.00">yaml</text>
<polygon fill="none" stroke="#47c507" points="164,-33 164,-57 469,-57 469,-33 164,-33"/>
<text text-anchor="start" x="187.5" y="-41.2" font-family="Times,serif" font-size="16.00">workflow&#45;generate&#45;website.yml</text>
<polygon fill="none" stroke="#47c507" points="160.5,-30 160.5,-86 471.5,-86 471.5,-30 160.5,-30"/>
</g>
<!-- b&#39;d29ya2Zsb3ctZ2VuZXJhdGUtbWV0YXNjaGVtYS1yZXNvdXJjZXMueW1s&#39; -->
<g id="node3" class="node">
<title>b&#39;d29ya2Zsb3ctZ2VuZXJhdGUtbWV0YXNjaGVtYS1yZXNvdXJjZXMueW1s&#39;</title>
<polygon fill="#c3fca6" stroke="#47c507" stroke-width="4" points="1117.5,-512 706.5,-512 706.5,-448 1117.5,-448 1117.5,-512"/>
<polygon fill="none" stroke="#47c507" points="718,-481 718,-505 1107,-505 1107,-481 718,-481"/>
<text text-anchor="start" x="832" y="-490.2" font-family="Times,serif" font-weight="bold" font-size="16.00">WORKFLOW</text>
<text text-anchor="start" x="947" y="-490.2" font-family="Times,serif" font-size="16.00"> </text>
<text text-anchor="start" x="953" y="-490.2" font-family="Times,serif" font-style="italic" font-size="16.00">yaml</text>
<polygon fill="none" stroke="#47c507" points="718,-455 718,-479 1107,-479 1107,-455 718,-455"/>
<text text-anchor="start" x="721" y="-463.2" font-family="Times,serif" font-size="16.00">workflow&#45;generate&#45;metaschema&#45;resources.yml</text>
<polygon fill="none" stroke="#47c507" points="714.5,-452 714.5,-508 1109.5,-508 1109.5,-452 714.5,-452"/>
</g>
<!-- b&#39;d29ya2Zsb3ctZ2VuZXJhdGUtd2Vic2l0ZS1yZWZlcmVuY2UueW1s&#39; -->
<g id="node4" class="node">
<title>b&#39;d29ya2Zsb3ctZ2VuZXJhdGUtd2Vic2l0ZS1yZWZlcmVuY2UueW1s&#39;</title>
<polygon fill="#c3fca6" stroke="#47c507" stroke-width="4" points="1077.5,-312 706.5,-312 706.5,-248 1077.5,-248 1077.5,-312"/>
<polygon fill="none" stroke="#47c507" points="718,-281 718,-305 1067,-305 1067,-281 718,-281"/>
<text text-anchor="start" x="812" y="-290.2" font-family="Times,serif" font-weight="bold" font-size="16.00">WORKFLOW</text>
<text text-anchor="start" x="927" y="-290.2" font-family="Times,serif" font-size="16.00"> </text>
<text text-anchor="start" x="933" y="-290.2" font-family="Times,serif" font-style="italic" font-size="16.00">yaml</text>
<polygon fill="none" stroke="#47c507" points="718,-255 718,-279 1067,-279 1067,-255 718,-255"/>
<text text-anchor="start" x="721" y="-263.2" font-family="Times,serif" font-size="16.00">workflow&#45;generate&#45;website&#45;reference.yml</text>
<polygon fill="none" stroke="#47c507" points="714.5,-252 714.5,-308 1069.5,-308 1069.5,-252 714.5,-252"/>
</g>
<!-- b&#39;d29ya2Zsb3ctdmFsaWRhdGUtcmVwby1tYXJrZG93bi55bWw=&#39; -->
<g id="node5" class="node">
<title>b&#39;d29ya2Zsb3ctdmFsaWRhdGUtcmVwby1tYXJrZG93bi55bWw=&#39;</title>
<polygon fill="#c3fca6" stroke="#47c507" stroke-width="4" points="1048.5,-712 705.5,-712 705.5,-648 1048.5,-648 1048.5,-712"/>
<polygon fill="none" stroke="#47c507" points="717,-681 717,-705 1038,-705 1038,-681 717,-681"/>
<text text-anchor="start" x="797" y="-690.2" font-family="Times,serif" font-weight="bold" font-size="16.00">WORKFLOW</text>
<text text-anchor="start" x="912" y="-690.2" font-family="Times,serif" font-size="16.00"> </text>
<text text-anchor="start" x="918" y="-690.2" font-family="Times,serif" font-style="italic" font-size="16.00">yaml</text>
<polygon fill="none" stroke="#47c507" points="717,-655 717,-679 1038,-679 1038,-655 717,-655"/>
<text text-anchor="start" x="720" y="-663.2" font-family="Times,serif" font-size="16.00">workflow&#45;validate&#45;repo&#45;markdown.yml</text>
<polygon fill="none" stroke="#47c507" points="713.5,-652 713.5,-708 1040.5,-708 1040.5,-652 713.5,-652"/>
</g>
<!-- b&#39;YidjM1JoZEhWekxXTnBMV05rTG5sdGJBPT0ndmFsaWRhdGUtcmVwby1tYXJrZG93bg==&#39;&#45;&gt;b&#39;d29ya2Zsb3ctdmFsaWRhdGUtcmVwby1tYXJrZG93bi55bWw=&#39; -->
<g id="edge8" class="edge">
<title>b&#39;YidjM1JoZEhWekxXTnBMV05rTG5sdGJBPT0ndmFsaWRhdGUtcmVwby1tYXJrZG93bg==&#39;&#45;&gt;b&#39;d29ya2Zsb3ctdmFsaWRhdGUtcmVwby1tYXJrZG93bi55bWw=&#39;</title>
<path fill="none" stroke="#002481" stroke-width="3" d="M536.57,-747.99C588.36,-737.8 646.27,-726.4 699.44,-715.94"/>
<polygon fill="#002481" stroke="#002481" stroke-width="3" points="700.9,-722.79 719.17,-712.06 698.2,-709.05 700.9,-722.79"/>
</g>
<!-- b&#39;YidjM1JoZEhWekxXTnBMV05rTG5sdGJBPT0ndmFsaWRhdGUtbWV0YXNjaGVtYS1hcnRpZmFjdHM=&#39; -->
<g id="node7" class="node">
<title>b&#39;YidjM1JoZEhWekxXTnBMV05rTG5sdGJBPT0ndmFsaWRhdGUtbWV0YXNjaGVtYS1hcnRpZmFjdHM=&#39;</title>
<polygon fill="#ffc355" stroke="#cc8400" stroke-width="4" points="606,-712 58,-712 58,-648 606,-648 606,-712"/>
<polygon fill="none" stroke="#cc8400" points="69,-681 69,-705 595,-705 595,-681 69,-681"/>
<text text-anchor="start" x="300.5" y="-690.2" font-family="Times,serif" font-weight="bold" font-size="16.00">JOB</text>
<text text-anchor="start" x="336.5" y="-690.2" font-family="Times,serif" font-size="16.00"> </text>
<text text-anchor="start" x="342.5" y="-690.2" font-family="Times,serif" font-style="italic" font-size="16.00">na</text>
<polygon fill="none" stroke="#cc8400" points="69,-655 69,-679 595,-679 595,-655 69,-655"/>
<text text-anchor="start" x="72" y="-663.2" font-family="Times,serif" font-size="16.00">Validate Metaschema Artifacts (validate&#45;metaschema&#45;artifacts)</text>
<polygon fill="none" stroke="#cc8400" points="66,-652 66,-708 598,-708 598,-652 66,-652"/>
</g>
<!-- b&#39;YidjM1JoZEhWekxXTnBMV05rTG5sdGJBPT0ndmFsaWRhdGUtcmVwby1tYXJrZG93bg==&#39;&#45;&gt;b&#39;YidjM1JoZEhWekxXTnBMV05rTG5sdGJBPT0ndmFsaWRhdGUtbWV0YXNjaGVtYS1hcnRpZmFjdHM=&#39; -->
<g id="edge2" class="edge">
<title>b&#39;YidjM1JoZEhWekxXTnBMV05rTG5sdGJBPT0ndmFsaWRhdGUtcmVwby1tYXJrZG93bg==&#39;&#45;&gt;b&#39;YidjM1JoZEhWekxXTnBMV05rTG5sdGJBPT0ndmFsaWRhdGUtbWV0YXNjaGVtYS1hcnRpZmFjdHM=&#39;</title>
<path fill="none" stroke="#996300" stroke-width="4" d="M364.13,-747.99C360.06,-739.5 355.58,-730.17 351.3,-721.25"/>
<polygon fill="#996300" stroke="#996300" stroke-width="4" points="354.42,-719.65 346.94,-712.14 348.1,-722.67 354.42,-719.65"/>
</g>
<!-- b&#39;YidjM1JoZEhWekxXTnBMV05rTG5sdGJBPT0ndmFsaWRhdGUtbWV0YXNjaGVtYS1hcnRpZmFjdHM=&#39;&#45;&gt;b&#39;d29ya2Zsb3ctZ2VuZXJhdGUtbWV0YXNjaGVtYS1yZXNvdXJjZXMueW1s&#39; -->
<g id="edge9" class="edge">
<title>b&#39;YidjM1JoZEhWekxXTnBMV05rTG5sdGJBPT0ndmFsaWRhdGUtbWV0YXNjaGVtYS1hcnRpZmFjdHM=&#39;&#45;&gt;b&#39;d29ya2Zsb3ctZ2VuZXJhdGUtbWV0YXNjaGVtYS1yZXNvdXJjZXMueW1s&#39;</title>
<path fill="none" stroke="#002481" stroke-width="3" d="M485.82,-647.97C528.13,-637.99 573.72,-625.86 615,-612 690.56,-586.63 773.29,-549.3 832.2,-520.98"/>
<polygon fill="#002481" stroke="#002481" stroke-width="3" points="835.51,-527.15 850.45,-512.12 829.4,-514.56 835.51,-527.15"/>
</g>
<!-- b&#39;YidjM1JoZEhWekxXTnBMV05rTG5sdGJBPT0ncHVzaC1tZXRhc2NoZW1hLWFydGlmYWN0cw==&#39; -->
<g id="node8" class="node">
<title>b&#39;YidjM1JoZEhWekxXTnBMV05rTG5sdGJBPT0ncHVzaC1tZXRhc2NoZW1hLWFydGlmYWN0cw==&#39;</title>
<polygon fill="#ffc355" stroke="#cc8400" stroke-width="4" points="606,-612 112,-612 112,-548 606,-548 606,-612"/>
<polygon fill="none" stroke="#cc8400" points="123,-581 123,-605 595,-605 595,-581 123,-581"/>
<text text-anchor="start" x="327.5" y="-590.2" font-family="Times,serif" font-weight="bold" font-size="16.00">JOB</text>
<text text-anchor="start" x="363.5" y="-590.2" font-family="Times,serif" font-size="16.00"> </text>
<text text-anchor="start" x="369.5" y="-590.2" font-family="Times,serif" font-style="italic" font-size="16.00">na</text>
<polygon fill="none" stroke="#cc8400" points="123,-555 123,-579 595,-579 595,-555 123,-555"/>
<text text-anchor="start" x="126" y="-563.2" font-family="Times,serif" font-size="16.00">Push Metaschema Artifacts (push&#45;metaschema&#45;artifacts)</text>
<polygon fill="none" stroke="#cc8400" points="120,-552 120,-608 598,-608 598,-552 120,-552"/>
</g>
<!-- b&#39;YidjM1JoZEhWekxXTnBMV05rTG5sdGJBPT0ndmFsaWRhdGUtbWV0YXNjaGVtYS1hcnRpZmFjdHM=&#39;&#45;&gt;b&#39;YidjM1JoZEhWekxXTnBMV05rTG5sdGJBPT0ncHVzaC1tZXRhc2NoZW1hLWFydGlmYWN0cw==&#39; -->
<g id="edge3" class="edge">
<title>b&#39;YidjM1JoZEhWekxXTnBMV05rTG5sdGJBPT0ndmFsaWRhdGUtbWV0YXNjaGVtYS1hcnRpZmFjdHM=&#39;&#45;&gt;b&#39;YidjM1JoZEhWekxXTnBMV05rTG5sdGJBPT0ncHVzaC1tZXRhc2NoZW1hLWFydGlmYWN0cw==&#39;</title>
<path fill="none" stroke="#996300" stroke-width="4" d="M340.54,-647.99C342.83,-639.68 345.34,-630.57 347.76,-621.81"/>
<polygon fill="#996300" stroke="#996300" stroke-width="4" points="351.14,-622.71 350.42,-612.14 344.39,-620.85 351.14,-622.71"/>
</g>
<!-- b&#39;YidjM1JoZEhWekxXTnBMV05rTG5sdGJBPT0ncHVzaC1tZXRhc2NoZW1hLWFydGlmYWN0cw==&#39;&#45;&gt;b&#39;d29ya2Zsb3ctZ2VuZXJhdGUtbWV0YXNjaGVtYS1yZXNvdXJjZXMueW1s&#39; -->
<g id="edge10" class="edge">
<title>b&#39;YidjM1JoZEhWekxXTnBMV05rTG5sdGJBPT0ncHVzaC1tZXRhc2NoZW1hLWFydGlmYWN0cw==&#39;&#45;&gt;b&#39;d29ya2Zsb3ctZ2VuZXJhdGUtbWV0YXNjaGVtYS1yZXNvdXJjZXMueW1s&#39;</title>
<path fill="none" stroke="#002481" stroke-width="3" d="M533.97,-547.99C592.11,-537.69 657.2,-526.15 716.77,-515.6"/>
<polygon fill="#002481" stroke="#002481" stroke-width="3" points="718.27,-522.44 736.74,-512.06 715.83,-508.66 718.27,-522.44"/>
</g>
<!-- b&#39;YidjM1JoZEhWekxXTnBMV05rTG5sdGJBPT0ndmFsaWRhdGUtd2Vic2l0ZS1yZWZlcmVuY2U=&#39; -->
<g id="node9" class="node">
<title>b&#39;YidjM1JoZEhWekxXTnBMV05rTG5sdGJBPT0ndmFsaWRhdGUtd2Vic2l0ZS1yZWZlcmVuY2U=&#39;</title>
<polygon fill="#ffc355" stroke="#cc8400" stroke-width="4" points="606,-512 114,-512 114,-448 606,-448 606,-512"/>
<polygon fill="none" stroke="#cc8400" points="125,-481 125,-505 595,-505 595,-481 125,-481"/>
<text text-anchor="start" x="328.5" y="-490.2" font-family="Times,serif" font-weight="bold" font-size="16.00">JOB</text>
<text text-anchor="start" x="364.5" y="-490.2" font-family="Times,serif" font-size="16.00"> </text>
<text text-anchor="start" x="370.5" y="-490.2" font-family="Times,serif" font-style="italic" font-size="16.00">na</text>
<polygon fill="none" stroke="#cc8400" points="125,-455 125,-479 595,-479 595,-455 125,-455"/>
<text text-anchor="start" x="128" y="-463.2" font-family="Times,serif" font-size="16.00">Validate Website Reference (validate&#45;website&#45;reference)</text>
<polygon fill="none" stroke="#cc8400" points="122,-452 122,-508 598,-508 598,-452 122,-452"/>
</g>
<!-- b&#39;YidjM1JoZEhWekxXTnBMV05rTG5sdGJBPT0ncHVzaC1tZXRhc2NoZW1hLWFydGlmYWN0cw==&#39;&#45;&gt;b&#39;YidjM1JoZEhWekxXTnBMV05rTG5sdGJBPT0ndmFsaWRhdGUtd2Vic2l0ZS1yZWZlcmVuY2U=&#39; -->
<g id="edge4" class="edge">
<title>b&#39;YidjM1JoZEhWekxXTnBMV05rTG5sdGJBPT0ncHVzaC1tZXRhc2NoZW1hLWFydGlmYWN0cw==&#39;&#45;&gt;b&#39;YidjM1JoZEhWekxXTnBMV05rTG5sdGJBPT0ndmFsaWRhdGUtd2Vic2l0ZS1yZWZlcmVuY2U=&#39;</title>
<path fill="none" stroke="#996300" stroke-width="4" d="M359.32,-547.99C359.4,-539.86 359.49,-530.96 359.58,-522.38"/>
<polygon fill="#996300" stroke="#996300" stroke-width="4" points="363.08,-522.18 359.68,-512.14 356.08,-522.11 363.08,-522.18"/>
</g>
<!-- b&#39;YidjM1JoZEhWekxXTnBMV05rTG5sdGJBPT0ndmFsaWRhdGUtd2Vic2l0ZS1yZWZlcmVuY2U=&#39;&#45;&gt;b&#39;d29ya2Zsb3ctZ2VuZXJhdGUtd2Vic2l0ZS1yZWZlcmVuY2UueW1s&#39; -->
<g id="edge11" class="edge">
<title>b&#39;YidjM1JoZEhWekxXTnBMV05rTG5sdGJBPT0ndmFsaWRhdGUtd2Vic2l0ZS1yZWZlcmVuY2U=&#39;&#45;&gt;b&#39;d29ya2Zsb3ctZ2VuZXJhdGUtd2Vic2l0ZS1yZWZlcmVuY2UueW1s&#39;</title>
<path fill="none" stroke="#002481" stroke-width="3" d="M497.08,-447.95C535.67,-437.87 577.37,-425.71 615,-412 685.13,-386.45 761.59,-349.56 816.37,-321.43"/>
<polygon fill="#002481" stroke="#002481" stroke-width="3" points="819.91,-327.49 834.44,-312.07 813.47,-315.06 819.91,-327.49"/>
</g>
<!-- b&#39;YidjM1JoZEhWekxXTnBMV05rTG5sdGJBPT0ncHVzaC13ZWJzaXRlLXJlZmVyZW5jZQ==&#39; -->
<g id="node10" class="node">
<title>b&#39;YidjM1JoZEhWekxXTnBMV05rTG5sdGJBPT0ncHVzaC13ZWJzaXRlLXJlZmVyZW5jZQ==&#39;</title>
<polygon fill="#ffc355" stroke="#cc8400" stroke-width="4" points="605.5,-412 166.5,-412 166.5,-348 605.5,-348 605.5,-412"/>
<polygon fill="none" stroke="#cc8400" points="178,-381 178,-405 595,-405 595,-381 178,-381"/>
<text text-anchor="start" x="355" y="-390.2" font-family="Times,serif" font-weight="bold" font-size="16.00">JOB</text>
<text text-anchor="start" x="391" y="-390.2" font-family="Times,serif" font-size="16.00"> </text>
<text text-anchor="start" x="397" y="-390.2" font-family="Times,serif" font-style="italic" font-size="16.00">na</text>
<polygon fill="none" stroke="#cc8400" points="178,-355 178,-379 595,-379 595,-355 178,-355"/>
<text text-anchor="start" x="181" y="-363.2" font-family="Times,serif" font-size="16.00">Push Website Reference (push&#45;website&#45;reference)</text>
<polygon fill="none" stroke="#cc8400" points="174.5,-352 174.5,-408 597.5,-408 597.5,-352 174.5,-352"/>
</g>
<!-- b&#39;YidjM1JoZEhWekxXTnBMV05rTG5sdGJBPT0ndmFsaWRhdGUtd2Vic2l0ZS1yZWZlcmVuY2U=&#39;&#45;&gt;b&#39;YidjM1JoZEhWekxXTnBMV05rTG5sdGJBPT0ncHVzaC13ZWJzaXRlLXJlZmVyZW5jZQ==&#39; -->
<g id="edge5" class="edge">
<title>b&#39;YidjM1JoZEhWekxXTnBMV05rTG5sdGJBPT0ndmFsaWRhdGUtd2Vic2l0ZS1yZWZlcmVuY2U=&#39;&#45;&gt;b&#39;YidjM1JoZEhWekxXTnBMV05rTG5sdGJBPT0ncHVzaC13ZWJzaXRlLXJlZmVyZW5jZQ==&#39;</title>
<path fill="none" stroke="#996300" stroke-width="4" d="M368.23,-447.99C370.43,-439.68 372.85,-430.57 375.17,-421.81"/>
<polygon fill="#996300" stroke="#996300" stroke-width="4" points="378.56,-422.71 377.74,-412.14 371.79,-420.91 378.56,-422.71"/>
</g>
<!-- b&#39;YidjM1JoZEhWekxXTnBMV05rTG5sdGJBPT0ncHVzaC13ZWJzaXRlLXJlZmVyZW5jZQ==&#39;&#45;&gt;b&#39;d29ya2Zsb3ctZ2VuZXJhdGUtd2Vic2l0ZS1yZWZlcmVuY2UueW1s&#39; -->
<g id="edge12" class="edge">
<title>b&#39;YidjM1JoZEhWekxXTnBMV05rTG5sdGJBPT0ncHVzaC13ZWJzaXRlLXJlZmVyZW5jZQ==&#39;&#45;&gt;b&#39;d29ya2Zsb3ctZ2VuZXJhdGUtd2Vic2l0ZS1yZWZlcmVuY2UueW1s&#39;</title>
<path fill="none" stroke="#002481" stroke-width="3" d="M546.1,-347.99C598.84,-337.78 657.82,-326.35 711.94,-315.87"/>
<polygon fill="#002481" stroke="#002481" stroke-width="3" points="713.33,-322.73 731.64,-312.06 710.67,-308.99 713.33,-322.73"/>
</g>
<!-- b&#39;YidjM1JoZEhWekxXTnBMV05rTG5sdGJBPT0ndmFsaWRhdGUtd2Vic2l0ZQ==&#39; -->
<g id="node11" class="node">
<title>b&#39;YidjM1JoZEhWekxXTnBMV05rTG5sdGJBPT0ndmFsaWRhdGUtd2Vic2l0ZQ==&#39;</title>
<polygon fill="#ffc355" stroke="#cc8400" stroke-width="4" points="562.5,-312 235.5,-312 235.5,-248 562.5,-248 562.5,-312"/>
<polygon fill="none" stroke="#cc8400" points="247,-281 247,-305 552,-305 552,-281 247,-281"/>
<text text-anchor="start" x="368" y="-290.2" font-family="Times,serif" font-weight="bold" font-size="16.00">JOB</text>
<text text-anchor="start" x="404" y="-290.2" font-family="Times,serif" font-size="16.00"> </text>
<text text-anchor="start" x="410" y="-290.2" font-family="Times,serif" font-style="italic" font-size="16.00">na</text>
<polygon fill="none" stroke="#cc8400" points="247,-255 247,-279 552,-279 552,-255 247,-255"/>
<text text-anchor="start" x="254.5" y="-263.2" font-family="Times,serif" font-size="16.00">Validate Website (validate&#45;website)</text>
<polygon fill="none" stroke="#cc8400" points="243.5,-252 243.5,-308 554.5,-308 554.5,-252 243.5,-252"/>
</g>
<!-- b&#39;YidjM1JoZEhWekxXTnBMV05rTG5sdGJBPT0ncHVzaC13ZWJzaXRlLXJlZmVyZW5jZQ==&#39;&#45;&gt;b&#39;YidjM1JoZEhWekxXTnBMV05rTG5sdGJBPT0ndmFsaWRhdGUtd2Vic2l0ZQ==&#39; -->
<g id="edge6" class="edge">
<title>b&#39;YidjM1JoZEhWekxXTnBMV05rTG5sdGJBPT0ncHVzaC13ZWJzaXRlLXJlZmVyZW5jZQ==&#39;&#45;&gt;b&#39;YidjM1JoZEhWekxXTnBMV05rTG5sdGJBPT0ndmFsaWRhdGUtd2Vic2l0ZQ==&#39;</title>
<path fill="none" stroke="#996300" stroke-width="4" d="M390.11,-347.99C391.2,-339.77 392.4,-330.76 393.55,-322.09"/>
<polygon fill="#996300" stroke="#996300" stroke-width="4" points="397.02,-322.52 394.87,-312.14 390.08,-321.6 397.02,-322.52"/>
</g>
<!-- b&#39;YidjM1JoZEhWekxXTnBMV05rTG5sdGJBPT0ndmFsaWRhdGUtd2Vic2l0ZQ==&#39;&#45;&gt;b&#39;d29ya2Zsb3ctZ2VuZXJhdGUtd2Vic2l0ZS55bWw=&#39; -->
<g id="edge13" class="edge">
<title>b&#39;YidjM1JoZEhWekxXTnBMV05rTG5sdGJBPT0ndmFsaWRhdGUtd2Vic2l0ZQ==&#39;&#45;&gt;b&#39;d29ya2Zsb3ctZ2VuZXJhdGUtd2Vic2l0ZS55bWw=&#39;</title>
<path fill="none" stroke="#002481" stroke-width="3" d="M406.94,-247.72C413.98,-213.38 420.44,-157.28 396.83,-107.76"/>
<polygon fill="#002481" stroke="#002481" stroke-width="3" points="402.86,-104.21 386.95,-90.22 390.67,-111.08 402.86,-104.21"/>
</g>
<!-- b&#39;YidjM1JoZEhWekxXTnBMV05rTG5sdGJBPT0ncHVzaC13ZWJzaXRl&#39; -->
<g id="node12" class="node">
<title>b&#39;YidjM1JoZEhWekxXTnBMV05rTG5sdGJBPT0ncHVzaC13ZWJzaXRl&#39;</title>
<polygon fill="#ffc355" stroke="#cc8400" stroke-width="4" points="384.5,-212 57.5,-212 57.5,-148 384.5,-148 384.5,-212"/>
<polygon fill="none" stroke="#cc8400" points="69,-181 69,-205 374,-205 374,-181 69,-181"/>
<text text-anchor="start" x="190" y="-190.2" font-family="Times,serif" font-weight="bold" font-size="16.00">JOB</text>
<text text-anchor="start" x="226" y="-190.2" font-family="Times,serif" font-size="16.00"> </text>
<text text-anchor="start" x="232" y="-190.2" font-family="Times,serif" font-style="italic" font-size="16.00">na</text>
<polygon fill="none" stroke="#cc8400" points="69,-155 69,-179 374,-179 374,-155 69,-155"/>
<text text-anchor="start" x="103" y="-163.2" font-family="Times,serif" font-size="16.00">Push Website (push&#45;website)</text>
<polygon fill="none" stroke="#cc8400" points="65.5,-152 65.5,-208 376.5,-208 376.5,-152 65.5,-152"/>
</g>
<!-- b&#39;YidjM1JoZEhWekxXTnBMV05rTG5sdGJBPT0ndmFsaWRhdGUtd2Vic2l0ZQ==&#39;&#45;&gt;b&#39;YidjM1JoZEhWekxXTnBMV05rTG5sdGJBPT0ncHVzaC13ZWJzaXRl&#39; -->
<g id="edge7" class="edge">
<title>b&#39;YidjM1JoZEhWekxXTnBMV05rTG5sdGJBPT0ndmFsaWRhdGUtd2Vic2l0ZQ==&#39;&#45;&gt;b&#39;YidjM1JoZEhWekxXTnBMV05rTG5sdGJBPT0ncHVzaC13ZWJzaXRl&#39;</title>
<path fill="none" stroke="#996300" stroke-width="4" d="M342.68,-247.99C324.82,-238.16 304.93,-227.21 286.49,-217.05"/>
<polygon fill="#996300" stroke="#996300" stroke-width="4" points="288.01,-213.9 277.56,-212.14 284.64,-220.03 288.01,-213.9"/>
</g>
<!-- b&#39;YidjM1JoZEhWekxXTnBMV05rTG5sdGJBPT0ncHVzaC13ZWJzaXRl&#39;&#45;&gt;b&#39;d29ya2Zsb3ctZ2VuZXJhdGUtd2Vic2l0ZS55bWw=&#39; -->
<g id="edge14" class="edge">
<title>b&#39;YidjM1JoZEhWekxXTnBMV05rTG5sdGJBPT0ncHVzaC13ZWJzaXRl&#39;&#45;&gt;b&#39;d29ya2Zsb3ctZ2VuZXJhdGUtd2Vic2l0ZS55bWw=&#39;</title>
<path fill="none" stroke="#002481" stroke-width="3" d="M245.71,-147.78C255.83,-135.01 267.75,-119.95 278.88,-105.89"/>
<polygon fill="#002481" stroke="#002481" stroke-width="3" points="284.49,-110.08 291.41,-90.06 273.51,-101.4 284.49,-110.08"/>
</g>
</g>
</svg>
