<?xml version="1.0" encoding="UTF-8" standalone="no"?>
<!DOCTYPE svg PUBLIC "-//W3C//DTD SVG 1.1//EN"
 "http://www.w3.org/Graphics/SVG/1.1/DTD/svg11.dtd">
<!-- Generated by graphviz version 2.43.0 (0)
 -->
<!-- Title: %3 Pages: 1 -->
<svg width="1458pt" height="704pt"
 viewBox="0.00 0.00 1457.50 704.00" xmlns="http://www.w3.org/2000/svg" xmlns:xlink="http://www.w3.org/1999/xlink">
<g id="graph0" class="graph" transform="scale(1 1) rotate(0) translate(4 700)">
<title>%3</title>
<polygon fill="white" stroke="transparent" points="-4,4 -4,-700 1453.5,-700 1453.5,4 -4,4"/>
<text text-anchor="middle" x="724.75" y="-9.2" font-family="Times,serif" font-size="16.00">Workflow Diagram</text>
<g id="clust1" class="cluster">
<title>cluster_b&#39;bGluay1jaGVjay55bWw=&#39;</title>
<polygon fill="none" stroke="#47c507" stroke-width="4" points="8,-98 8,-688 932,-688 932,-98 8,-98"/>
<text text-anchor="middle" x="470" y="-671.2" font-family="Times,serif" font-size="16.00">Workflow</text>
</g>
<!-- b&#39;bGluay1jaGVjay55bWw=&#39; -->
<g id="node1" class="node">
<title>b&#39;bGluay1jaGVjay55bWw=&#39;</title>
<polygon fill="#c3fca6" stroke="#47c507" stroke-width="4" points="761.5,-612 294.5,-612 294.5,-548 761.5,-548 761.5,-612"/>
<polygon fill="none" stroke="#47c507" points="306,-581 306,-605 751,-605 751,-581 306,-581"/>
<text text-anchor="start" x="448" y="-590.2" font-family="Times,serif" font-weight="bold" font-size="16.00">WORKFLOW</text>
<text text-anchor="start" x="563" y="-590.2" font-family="Times,serif" font-size="16.00"> </text>
<text text-anchor="start" x="569" y="-590.2" font-family="Times,serif" font-style="italic" font-size="16.00">yaml</text>
<polygon fill="none" stroke="#47c507" points="306,-555 306,-579 751,-579 751,-555 306,-555"/>
<text text-anchor="start" x="469" y="-563.2" font-family="Times,serif" font-size="16.00">link&#45;check.yml</text>
<polygon fill="none" stroke="#47c507" points="302.5,-552 302.5,-608 753.5,-608 753.5,-552 302.5,-552"/>
</g>
<!-- b&#39;YidiR2x1YXkxamFHVmpheTU1Yld3PSdzY2hlZHVsZS12YWxpZGF0ZS1yZXBvLW1hcmtkb3duLWxpbmtz&#39; -->
<g id="node4" class="node">
<title>b&#39;YidiR2x1YXkxamFHVmpheTU1Yld3PSdzY2hlZHVsZS12YWxpZGF0ZS1yZXBvLW1hcmtkb3duLWxpbmtz&#39;</title>
<polygon fill="#ffc355" stroke="#cc8400" stroke-width="4" points="881.5,-512 174.5,-512 174.5,-448 881.5,-448 881.5,-512"/>
<polygon fill="none" stroke="#cc8400" points="186,-481 186,-505 871,-505 871,-481 186,-481"/>
<text text-anchor="start" x="497" y="-490.2" font-family="Times,serif" font-weight="bold" font-size="16.00">JOB</text>
<text text-anchor="start" x="533" y="-490.2" font-family="Times,serif" font-size="16.00"> </text>
<text text-anchor="start" x="539" y="-490.2" font-family="Times,serif" font-style="italic" font-size="16.00">na</text>
<polygon fill="none" stroke="#cc8400" points="186,-455 186,-479 871,-479 871,-455 186,-455"/>
<text text-anchor="start" x="189" y="-463.2" font-family="Times,serif" font-size="16.00">Schedule Validate Repo Markdown Links (schedule&#45;validate&#45;repo&#45;markdown&#45;links)</text>
<polygon fill="none" stroke="#cc8400" points="182.5,-452 182.5,-508 873.5,-508 873.5,-452 182.5,-452"/>
</g>
<!-- b&#39;bGluay1jaGVjay55bWw=&#39;&#45;&gt;b&#39;YidiR2x1YXkxamFHVmpheTU1Yld3PSdzY2hlZHVsZS12YWxpZGF0ZS1yZXBvLW1hcmtkb3duLWxpbmtz&#39; -->
<g id="edge1" class="edge">
<title>b&#39;bGluay1jaGVjay55bWw=&#39;&#45;&gt;b&#39;YidiR2x1YXkxamFHVmpheTU1Yld3PSdzY2hlZHVsZS12YWxpZGF0ZS1yZXBvLW1hcmtkb3duLWxpbmtz&#39;</title>
<path fill="none" stroke="#996300" stroke-width="4" d="M528,-547.99C528,-539.86 528,-530.96 528,-522.38"/>
<polygon fill="#996300" stroke="#996300" stroke-width="4" points="531.5,-522.14 528,-512.14 524.5,-522.14 531.5,-522.14"/>
</g>
<!-- b&#39;d29ya2Zsb3ctdmFsaWRhdGUtd2Vic2l0ZS1jb250ZW50LnltbA==&#39; -->
<g id="node2" class="node">
<title>b&#39;d29ya2Zsb3ctdmFsaWRhdGUtd2Vic2l0ZS1jb250ZW50LnltbA==&#39;</title>
<polygon fill="#c3fca6" stroke="#47c507" stroke-width="4" points="822.5,-90 355.5,-90 355.5,-26 822.5,-26 822.5,-90"/>
<polygon fill="none" stroke="#47c507" points="367,-59 367,-83 812,-83 812,-59 367,-59"/>
<text text-anchor="start" x="509" y="-68.2" font-family="Times,serif" font-weight="bold" font-size="16.00">WORKFLOW</text>
<text text-anchor="start" x="624" y="-68.2" font-family="Times,serif" font-size="16.00"> </text>
<text text-anchor="start" x="630" y="-68.2" font-family="Times,serif" font-style="italic" font-size="16.00">yaml</text>
<polygon fill="none" stroke="#47c507" points="367,-33 367,-57 812,-57 812,-33 367,-33"/>
<text text-anchor="start" x="430.5" y="-41.2" font-family="Times,serif" font-size="16.00">workflow&#45;validate&#45;website&#45;content.yml</text>
<polygon fill="none" stroke="#47c507" points="363.5,-30 363.5,-86 814.5,-86 814.5,-30 363.5,-30"/>
</g>
<!-- b&#39;d29ya2Zsb3ctdmFsaWRhdGUtcmVwby1tYXJrZG93bi55bWw=&#39; -->
<g id="node3" class="node">
<title>b&#39;d29ya2Zsb3ctdmFsaWRhdGUtcmVwby1tYXJrZG93bi55bWw=&#39;</title>
<polygon fill="#c3fca6" stroke="#47c507" stroke-width="4" points="1449.5,-312 982.5,-312 982.5,-248 1449.5,-248 1449.5,-312"/>
<polygon fill="none" stroke="#47c507" points="994,-281 994,-305 1439,-305 1439,-281 994,-281"/>
<text text-anchor="start" x="1136" y="-290.2" font-family="Times,serif" font-weight="bold" font-size="16.00">WORKFLOW</text>
<text text-anchor="start" x="1251" y="-290.2" font-family="Times,serif" font-size="16.00"> </text>
<text text-anchor="start" x="1257" y="-290.2" font-family="Times,serif" font-style="italic" font-size="16.00">yaml</text>
<polygon fill="none" stroke="#47c507" points="994,-255 994,-279 1439,-279 1439,-255 994,-255"/>
<text text-anchor="start" x="1059" y="-263.2" font-family="Times,serif" font-size="16.00">workflow&#45;validate&#45;repo&#45;markdown.yml</text>
<polygon fill="none" stroke="#47c507" points="990.5,-252 990.5,-308 1441.5,-308 1441.5,-252 990.5,-252"/>
</g>
<!-- b&#39;YidiR2x1YXkxamFHVmpheTU1Yld3PSdzY2hlZHVsZS12YWxpZGF0ZS1yZXBvLW1hcmtkb3duLWxpbmtz&#39;&#45;&gt;b&#39;d29ya2Zsb3ctdmFsaWRhdGUtcmVwby1tYXJrZG93bi55bWw=&#39; -->
<g id="edge5" class="edge">
<title>b&#39;YidiR2x1YXkxamFHVmpheTU1Yld3PSdzY2hlZHVsZS12YWxpZGF0ZS1yZXBvLW1hcmtkb3duLWxpbmtz&#39;&#45;&gt;b&#39;d29ya2Zsb3ctdmFsaWRhdGUtcmVwby1tYXJrZG93bi55bWw=&#39;</title>
<path fill="none" stroke="#002481" stroke-width="3" d="M736.52,-447.92C787.52,-438.29 841.61,-426.35 891,-412 975.01,-387.59 1067.19,-349.26 1131.85,-320.36"/>
<polygon fill="#002481" stroke="#002481" stroke-width="3" points="1134.81,-326.71 1150.16,-312.1 1129.05,-313.95 1134.81,-326.71"/>
</g>
<!-- b&#39;YidiR2x1YXkxamFHVmpheTU1Yld3PSdzY2hlZHVsZS12YWxpZGF0ZS1yZXBvLW1hcmtkb3duLWxpbmtzLWRlYnVn&#39; -->
<g id="node5" class="node">
<title>b&#39;YidiR2x1YXkxamFHVmpheTU1Yld3PSdzY2hlZHVsZS12YWxpZGF0ZS1yZXBvLW1hcmtkb3duLWxpbmtzLWRlYnVn&#39;</title>
<polygon fill="#ffc355" stroke="#cc8400" stroke-width="4" points="882,-412 58,-412 58,-348 882,-348 882,-412"/>
<polygon fill="none" stroke="#cc8400" points="69,-381 69,-405 871,-405 871,-381 69,-381"/>
<text text-anchor="start" x="438.5" y="-390.2" font-family="Times,serif" font-weight="bold" font-size="16.00">JOB</text>
<text text-anchor="start" x="474.5" y="-390.2" font-family="Times,serif" font-size="16.00"> </text>
<text text-anchor="start" x="480.5" y="-390.2" font-family="Times,serif" font-style="italic" font-size="16.00">na</text>
<polygon fill="none" stroke="#cc8400" points="69,-355 69,-379 871,-379 871,-355 69,-355"/>
<text text-anchor="start" x="72" y="-363.2" font-family="Times,serif" font-size="16.00">Schedule Validate Repo Markdown Links Debug (schedule&#45;validate&#45;repo&#45;markdown&#45;links&#45;debug)</text>
<polygon fill="none" stroke="#cc8400" points="66,-352 66,-408 874,-408 874,-352 66,-352"/>
</g>
<!-- b&#39;YidiR2x1YXkxamFHVmpheTU1Yld3PSdzY2hlZHVsZS12YWxpZGF0ZS1yZXBvLW1hcmtkb3duLWxpbmtz&#39;&#45;&gt;b&#39;YidiR2x1YXkxamFHVmpheTU1Yld3PSdzY2hlZHVsZS12YWxpZGF0ZS1yZXBvLW1hcmtkb3duLWxpbmtzLWRlYnVn&#39; -->
<g id="edge2" class="edge">
<title>b&#39;YidiR2x1YXkxamFHVmpheTU1Yld3PSdzY2hlZHVsZS12YWxpZGF0ZS1yZXBvLW1hcmtkb3duLWxpbmtz&#39;&#45;&gt;b&#39;YidiR2x1YXkxamFHVmpheTU1Yld3PSdzY2hlZHVsZS12YWxpZGF0ZS1yZXBvLW1hcmtkb3duLWxpbmtzLWRlYnVn&#39;</title>
<path fill="none" stroke="#996300" stroke-width="4" d="M509.65,-447.99C504.57,-439.41 498.99,-429.98 493.65,-420.97"/>
<polygon fill="#996300" stroke="#996300" stroke-width="4" points="496.54,-418.97 488.43,-412.14 490.51,-422.53 496.54,-418.97"/>
</g>
<!-- b&#39;YidiR2x1YXkxamFHVmpheTU1Yld3PSdzY2hlZHVsZS12YWxpZGF0ZS1yZXBvLW1hcmtkb3duLWxpbmtzLWRlYnVn&#39;&#45;&gt;b&#39;d29ya2Zsb3ctdmFsaWRhdGUtcmVwby1tYXJrZG93bi55bWw=&#39; -->
<g id="edge6" class="edge">
<title>b&#39;YidiR2x1YXkxamFHVmpheTU1Yld3PSdzY2hlZHVsZS12YWxpZGF0ZS1yZXBvLW1hcmtkb3duLWxpbmtzLWRlYnVn&#39;&#45;&gt;b&#39;d29ya2Zsb3ctdmFsaWRhdGUtcmVwby1tYXJrZG93bi55bWw=&#39;</title>
<path fill="none" stroke="#002481" stroke-width="3" d="M706.04,-347.99C787.66,-337.27 879.43,-325.21 962.4,-314.31"/>
<polygon fill="#002481" stroke="#002481" stroke-width="3" points="963.54,-321.23 982.45,-311.68 961.71,-307.34 963.54,-321.23"/>
</g>
<!-- b&#39;YidiR2x1YXkxamFHVmpheTU1Yld3PSdzY2hlZHVsZS12YWxpZGF0ZS13ZWJzaXRlLWxpbmtz&#39; -->
<g id="node6" class="node">
<title>b&#39;YidiR2x1YXkxamFHVmpheTU1Yld3PSdzY2hlZHVsZS12YWxpZGF0ZS13ZWJzaXRlLWxpbmtz&#39;</title>
<polygon fill="#ffc355" stroke="#cc8400" stroke-width="4" points="819,-312 247,-312 247,-248 819,-248 819,-312"/>
<polygon fill="none" stroke="#cc8400" points="258,-281 258,-305 808,-305 808,-281 258,-281"/>
<text text-anchor="start" x="501.5" y="-290.2" font-family="Times,serif" font-weight="bold" font-size="16.00">JOB</text>
<text text-anchor="start" x="537.5" y="-290.2" font-family="Times,serif" font-size="16.00"> </text>
<text text-anchor="start" x="543.5" y="-290.2" font-family="Times,serif" font-style="italic" font-size="16.00">na</text>
<polygon fill="none" stroke="#cc8400" points="258,-255 258,-279 808,-279 808,-255 258,-255"/>
<text text-anchor="start" x="261" y="-263.2" font-family="Times,serif" font-size="16.00">Schedule Validate Website Links (schedule&#45;validate&#45;website&#45;links)</text>
<polygon fill="none" stroke="#cc8400" points="255,-252 255,-308 811,-308 811,-252 255,-252"/>
</g>
<!-- b&#39;YidiR2x1YXkxamFHVmpheTU1Yld3PSdzY2hlZHVsZS12YWxpZGF0ZS1yZXBvLW1hcmtkb3duLWxpbmtzLWRlYnVn&#39;&#45;&gt;b&#39;YidiR2x1YXkxamFHVmpheTU1Yld3PSdzY2hlZHVsZS12YWxpZGF0ZS13ZWJzaXRlLWxpbmtz&#39; -->
<g id="edge3" class="edge">
<title>b&#39;YidiR2x1YXkxamFHVmpheTU1Yld3PSdzY2hlZHVsZS12YWxpZGF0ZS1yZXBvLW1hcmtkb3duLWxpbmtzLWRlYnVn&#39;&#45;&gt;b&#39;YidiR2x1YXkxamFHVmpheTU1Yld3PSdzY2hlZHVsZS12YWxpZGF0ZS13ZWJzaXRlLWxpbmtz&#39;</title>
<path fill="none" stroke="#996300" stroke-width="4" d="M489.93,-347.99C495.51,-339.32 501.64,-329.78 507.49,-320.68"/>
<polygon fill="#996300" stroke="#996300" stroke-width="4" points="510.52,-322.45 512.98,-312.14 504.63,-318.66 510.52,-322.45"/>
</g>
<!-- b&#39;YidiR2x1YXkxamFHVmpheTU1Yld3PSdzY2hlZHVsZS12YWxpZGF0ZS13ZWJzaXRlLWxpbmtz&#39;&#45;&gt;b&#39;d29ya2Zsb3ctdmFsaWRhdGUtd2Vic2l0ZS1jb250ZW50LnltbA==&#39; -->
<g id="edge7" class="edge">
<title>b&#39;YidiR2x1YXkxamFHVmpheTU1Yld3PSdzY2hlZHVsZS12YWxpZGF0ZS13ZWJzaXRlLWxpbmtz&#39;&#45;&gt;b&#39;d29ya2Zsb3ctdmFsaWRhdGUtd2Vic2l0ZS1jb250ZW50LnltbA==&#39;</title>
<path fill="none" stroke="#002481" stroke-width="3" d="M683.98,-247.97C717.22,-238.02 745.66,-225.91 756,-212 782.75,-176.03 786.82,-145.54 758.94,-106.06"/>
<polygon fill="#002481" stroke="#002481" stroke-width="3" points="764.28,-101.52 746.4,-90.14 753.28,-110.18 764.28,-101.52"/>
</g>
<!-- b&#39;YidiR2x1YXkxamFHVmpheTU1Yld3PSdzY2hlZHVsZS12YWxpZGF0ZS13ZWJzaXRlLWxpbmtzLWRlYnVn&#39; -->
<g id="node7" class="node">
<title>b&#39;YidiR2x1YXkxamFHVmpheTU1Yld3PSdzY2hlZHVsZS12YWxpZGF0ZS13ZWJzaXRlLWxpbmtzLWRlYnVn&#39;</title>
<polygon fill="#ffc355" stroke="#cc8400" stroke-width="4" points="747.5,-212 58.5,-212 58.5,-148 747.5,-148 747.5,-212"/>
<polygon fill="none" stroke="#cc8400" points="70,-181 70,-205 737,-205 737,-181 70,-181"/>
<text text-anchor="start" x="372" y="-190.2" font-family="Times,serif" font-weight="bold" font-size="16.00">JOB</text>
<text text-anchor="start" x="408" y="-190.2" font-family="Times,serif" font-size="16.00"> </text>
<text text-anchor="start" x="414" y="-190.2" font-family="Times,serif" font-style="italic" font-size="16.00">na</text>
<polygon fill="none" stroke="#cc8400" points="70,-155 70,-179 737,-179 737,-155 70,-155"/>
<text text-anchor="start" x="73" y="-163.2" font-family="Times,serif" font-size="16.00">Schedule Validate Website Links Debug (schedule&#45;validate&#45;website&#45;links&#45;debug)</text>
<polygon fill="none" stroke="#cc8400" points="66.5,-152 66.5,-208 739.5,-208 739.5,-152 66.5,-152"/>
</g>
<!-- b&#39;YidiR2x1YXkxamFHVmpheTU1Yld3PSdzY2hlZHVsZS12YWxpZGF0ZS13ZWJzaXRlLWxpbmtz&#39;&#45;&gt;b&#39;YidiR2x1YXkxamFHVmpheTU1Yld3PSdzY2hlZHVsZS12YWxpZGF0ZS13ZWJzaXRlLWxpbmtzLWRlYnVn&#39; -->
<g id="edge4" class="edge">
<title>b&#39;YidiR2x1YXkxamFHVmpheTU1Yld3PSdzY2hlZHVsZS12YWxpZGF0ZS13ZWJzaXRlLWxpbmtz&#39;&#45;&gt;b&#39;YidiR2x1YXkxamFHVmpheTU1Yld3PSdzY2hlZHVsZS12YWxpZGF0ZS13ZWJzaXRlLWxpbmtzLWRlYnVn&#39;</title>
<path fill="none" stroke="#996300" stroke-width="4" d="M491.87,-247.99C479.3,-238.52 465.35,-228 452.3,-218.17"/>
<polygon fill="#996300" stroke="#996300" stroke-width="4" points="454.4,-215.37 444.31,-212.14 450.19,-220.96 454.4,-215.37"/>
</g>
<!-- b&#39;YidiR2x1YXkxamFHVmpheTU1Yld3PSdzY2hlZHVsZS12YWxpZGF0ZS13ZWJzaXRlLWxpbmtzLWRlYnVn&#39;&#45;&gt;b&#39;d29ya2Zsb3ctdmFsaWRhdGUtd2Vic2l0ZS1jb250ZW50LnltbA==&#39; -->
<g id="edge8" class="edge">
<title>b&#39;YidiR2x1YXkxamFHVmpheTU1Yld3PSdzY2hlZHVsZS12YWxpZGF0ZS13ZWJzaXRlLWxpbmtzLWRlYnVn&#39;&#45;&gt;b&#39;d29ya2Zsb3ctdmFsaWRhdGUtd2Vic2l0ZS1jb250ZW50LnltbA==&#39;</title>
<path fill="none" stroke="#002481" stroke-width="3" d="M451.38,-147.78C473.56,-133.48 500.17,-116.31 524.05,-100.9"/>
<polygon fill="#002481" stroke="#002481" stroke-width="3" points="527.85,-106.78 540.86,-90.06 520.26,-95.02 527.85,-106.78"/>
</g>
</g>
</svg>
