<?xml version="1.0" encoding="UTF-8" standalone="no"?>
<!DOCTYPE svg PUBLIC "-//W3C//DTD SVG 1.1//EN"
 "http://www.w3.org/Graphics/SVG/1.1/DTD/svg11.dtd">
<!-- Generated by graphviz version 2.43.0 (0)
 -->
<!-- Title: %3 Pages: 1 -->
<svg width="1132pt" height="604pt"
 viewBox="0.00 0.00 1132.00 604.00" xmlns="http://www.w3.org/2000/svg" xmlns:xlink="http://www.w3.org/1999/xlink">
<g id="graph0" class="graph" transform="scale(1 1) rotate(0) translate(4 600)">
<title>%3</title>
<polygon fill="white" stroke="transparent" points="-4,4 -4,-600 1128,-600 1128,4 -4,4"/>
<text text-anchor="middle" x="562" y="-9.2" font-family="Times,serif" font-size="16.00">Workflow Diagram</text>
<g id="clust1" class="cluster">
<title>cluster_b&#39;aXNzdWUtdHJpYWdlLnltbA==&#39;</title>
<polygon fill="none" stroke="#47c507" stroke-width="4" points="34,-98 34,-588 700,-588 700,-98 34,-98"/>
<text text-anchor="middle" x="367" y="-571.2" font-family="Times,serif" font-size="16.00">Workflow</text>
</g>
<!-- b&#39;aXNzdWUtdHJpYWdlLnltbA==&#39; -->
<g id="node1" class="node">
<title>b&#39;aXNzdWUtdHJpYWdlLnltbA==&#39;</title>
<polygon fill="#c3fca6" stroke="#47c507" stroke-width="4" points="432,-512 230,-512 230,-448 432,-448 432,-512"/>
<polygon fill="none" stroke="#47c507" points="241,-481 241,-505 421,-505 421,-481 241,-481"/>
<text text-anchor="start" x="250.5" y="-490.2" font-family="Times,serif" font-weight="bold" font-size="16.00">WORKFLOW</text>
<text text-anchor="start" x="365.5" y="-490.2" font-family="Times,serif" font-size="16.00"> </text>
<text text-anchor="start" x="371.5" y="-490.2" font-family="Times,serif" font-style="italic" font-size="16.00">yaml</text>
<polygon fill="none" stroke="#47c507" points="241,-455 241,-479 421,-479 421,-455 241,-455"/>
<text text-anchor="start" x="265" y="-463.2" font-family="Times,serif" font-size="16.00">issue&#45;triage.yml</text>
<polygon fill="none" stroke="#47c507" points="238,-452 238,-508 424,-508 424,-452 238,-452"/>
</g>
<!-- b&#39;YidhWE56ZFdVdGRISnBZV2RsTG5sdGJBPT0nY3JlYXRlQ2FyZA==&#39; -->
<g id="node2" class="node">
<title>b&#39;YidhWE56ZFdVdGRISnBZV2RsTG5sdGJBPT0nY3JlYXRlQ2FyZA==&#39;</title>
<polygon fill="#ffc355" stroke="#cc8400" stroke-width="4" points="432,-412 230,-412 230,-348 432,-348 432,-412"/>
<polygon fill="none" stroke="#cc8400" points="241,-381 241,-405 421,-405 421,-381 241,-381"/>
<text text-anchor="start" x="299.5" y="-390.2" font-family="Times,serif" font-weight="bold" font-size="16.00">JOB</text>
<text text-anchor="start" x="335.5" y="-390.2" font-family="Times,serif" font-size="16.00"> </text>
<text text-anchor="start" x="341.5" y="-390.2" font-family="Times,serif" font-style="italic" font-size="16.00">na</text>
<polygon fill="none" stroke="#cc8400" points="241,-355 241,-379 421,-379 421,-355 241,-355"/>
<text text-anchor="start" x="284.5" y="-363.2" font-family="Times,serif" font-size="16.00">Createcard</text>
<polygon fill="none" stroke="#cc8400" points="238,-352 238,-408 424,-408 424,-352 238,-352"/>
</g>
<!-- b&#39;aXNzdWUtdHJpYWdlLnltbA==&#39;&#45;&gt;b&#39;YidhWE56ZFdVdGRISnBZV2RsTG5sdGJBPT0nY3JlYXRlQ2FyZA==&#39; -->
<g id="edge1" class="edge">
<title>b&#39;aXNzdWUtdHJpYWdlLnltbA==&#39;&#45;&gt;b&#39;YidhWE56ZFdVdGRISnBZV2RsTG5sdGJBPT0nY3JlYXRlQ2FyZA==&#39;</title>
<path fill="none" stroke="#996300" stroke-width="4" d="M331,-447.99C331,-439.86 331,-430.96 331,-422.38"/>
<polygon fill="#996300" stroke="#996300" stroke-width="4" points="334.5,-422.14 331,-412.14 327.5,-422.14 334.5,-422.14"/>
</g>
<!-- b&#39;YidhWE56ZFdVdGRISnBZV2RsTG5sdGJBPT0nY3JlYXRlQ2FyZF9zdGVwXzE=&#39; -->
<g id="node3" class="node">
<title>b&#39;YidhWE56ZFdVdGRISnBZV2RsTG5sdGJBPT0nY3JlYXRlQ2FyZF9zdGVwXzE=&#39;</title>
<polygon fill="#fbe29d" stroke="#c49208" stroke-width="4" points="650,-312 304,-312 304,-248 650,-248 650,-312"/>
<polygon fill="none" stroke="#c49208" points="315,-281 315,-305 639,-305 639,-281 315,-281"/>
<text text-anchor="start" x="444.5" y="-290.2" font-family="Times,serif" font-weight="bold" font-size="16.00">STEP</text>
<text text-anchor="start" x="492.5" y="-290.2" font-family="Times,serif" font-size="16.00"> </text>
<text text-anchor="start" x="498.5" y="-290.2" font-family="Times,serif" font-style="italic" font-size="16.00">1</text>
<polygon fill="none" stroke="#c49208" points="315,-255 315,-279 639,-279 639,-255 315,-255"/>
<text text-anchor="start" x="318" y="-263.2" font-family="Times,serif" font-size="16.00">Add New Issues To Issue Triage Board</text>
<polygon fill="none" stroke="#c49208" points="312,-252 312,-308 642,-308 642,-252 312,-252"/>
</g>
<!-- b&#39;YidhWE56ZFdVdGRISnBZV2RsTG5sdGJBPT0nY3JlYXRlQ2FyZA==&#39;&#45;&gt;b&#39;YidhWE56ZFdVdGRISnBZV2RsTG5sdGJBPT0nY3JlYXRlQ2FyZF9zdGVwXzE=&#39; -->
<g id="edge2" class="edge">
<title>b&#39;YidhWE56ZFdVdGRISnBZV2RsTG5sdGJBPT0nY3JlYXRlQ2FyZA==&#39;&#45;&gt;b&#39;YidhWE56ZFdVdGRISnBZV2RsTG5sdGJBPT0nY3JlYXRlQ2FyZF9zdGVwXzE=&#39;</title>
<path fill="none" stroke="#996300" stroke-width="4" d="M377.2,-347.99C391.44,-338.43 407.27,-327.81 422.05,-317.89"/>
<polygon fill="#996300" stroke="#996300" stroke-width="4" points="424.25,-320.62 430.6,-312.14 420.35,-314.81 424.25,-320.62"/>
</g>
<!-- b&#39;YidhWE56ZFdVdGRISnBZV2RsTG5sdGJBPT0ncmVtb3ZlQ2FyZA==&#39; -->
<g id="node4" class="node">
<title>b&#39;YidhWE56ZFdVdGRISnBZV2RsTG5sdGJBPT0ncmVtb3ZlQ2FyZA==&#39;</title>
<polygon fill="#ffc355" stroke="#cc8400" stroke-width="4" points="286,-312 84,-312 84,-248 286,-248 286,-312"/>
<polygon fill="none" stroke="#cc8400" points="95,-281 95,-305 275,-305 275,-281 95,-281"/>
<text text-anchor="start" x="153.5" y="-290.2" font-family="Times,serif" font-weight="bold" font-size="16.00">JOB</text>
<text text-anchor="start" x="189.5" y="-290.2" font-family="Times,serif" font-size="16.00"> </text>
<text text-anchor="start" x="195.5" y="-290.2" font-family="Times,serif" font-style="italic" font-size="16.00">na</text>
<polygon fill="none" stroke="#cc8400" points="95,-255 95,-279 275,-279 275,-255 95,-255"/>
<text text-anchor="start" x="133.5" y="-263.2" font-family="Times,serif" font-size="16.00">Removecard</text>
<polygon fill="none" stroke="#cc8400" points="92,-252 92,-308 278,-308 278,-252 92,-252"/>
</g>
<!-- b&#39;YidhWE56ZFdVdGRISnBZV2RsTG5sdGJBPT0nY3JlYXRlQ2FyZA==&#39;&#45;&gt;b&#39;YidhWE56ZFdVdGRISnBZV2RsTG5sdGJBPT0ncmVtb3ZlQ2FyZA==&#39; -->
<g id="edge3" class="edge">
<title>b&#39;YidhWE56ZFdVdGRISnBZV2RsTG5sdGJBPT0nY3JlYXRlQ2FyZA==&#39;&#45;&gt;b&#39;YidhWE56ZFdVdGRISnBZV2RsTG5sdGJBPT0ncmVtb3ZlQ2FyZA==&#39;</title>
<path fill="none" stroke="#996300" stroke-width="4" d="M284.8,-347.99C270.56,-338.43 254.73,-327.81 239.95,-317.89"/>
<polygon fill="#996300" stroke="#996300" stroke-width="4" points="241.65,-314.81 231.4,-312.14 237.75,-320.62 241.65,-314.81"/>
</g>
<!-- b&#39;cGV0ZXItZXZhbnMvY3JlYXRlLW9yLXVwZGF0ZS1wcm9qZWN0LWNhcmRAODY2NTMzZTJhZTYxZjEzYzM1ZmQxZDM3NDA0OTcxM2ZhYjQzYzcyOQ==&#39; -->
<g id="node6" class="node">
<title>b&#39;cGV0ZXItZXZhbnMvY3JlYXRlLW9yLXVwZGF0ZS1wcm9qZWN0LWNhcmRAODY2NTMzZTJhZTYxZjEzYzM1ZmQxZDM3NDA0OTcxM2ZhYjQzYzcyOQ==&#39;</title>
<polygon fill="#a6e6fc" stroke="#0795c5" stroke-width="4" points="1124,-212 750,-212 750,-148 1124,-148 1124,-212"/>
<polygon fill="none" stroke="#0795c5" points="761,-181 761,-205 1113,-205 1113,-181 761,-181"/>
<text text-anchor="start" x="854.5" y="-190.2" font-family="Times,serif" font-weight="bold" font-size="16.00">ACTION</text>
<text text-anchor="start" x="928.5" y="-190.2" font-family="Times,serif" font-size="16.00"> </text>
<text text-anchor="start" x="934.5" y="-190.2" font-family="Times,serif" font-style="italic" font-size="16.00">repository</text>
<polygon fill="none" stroke="#0795c5" points="761,-155 761,-179 1113,-179 1113,-155 761,-155"/>
<text text-anchor="start" x="764" y="-163.2" font-family="Times,serif" font-size="16.00">peter&#45;evans/create&#45;or&#45;update&#45;project&#45;card</text>
<polygon fill="none" stroke="#0795c5" points="758,-152 758,-208 1116,-208 1116,-152 758,-152"/>
</g>
<!-- b&#39;YidhWE56ZFdVdGRISnBZV2RsTG5sdGJBPT0nY3JlYXRlQ2FyZF9zdGVwXzE=&#39;&#45;&gt;b&#39;cGV0ZXItZXZhbnMvY3JlYXRlLW9yLXVwZGF0ZS1wcm9qZWN0LWNhcmRAODY2NTMzZTJhZTYxZjEzYzM1ZmQxZDM3NDA0OTcxM2ZhYjQzYzcyOQ==&#39; -->
<g id="edge5" class="edge">
<title>b&#39;YidhWE56ZFdVdGRISnBZV2RsTG5sdGJBPT0nY3JlYXRlQ2FyZF9zdGVwXzE=&#39;&#45;&gt;b&#39;cGV0ZXItZXZhbnMvY3JlYXRlLW9yLXVwZGF0ZS1wcm9qZWN0LWNhcmRAODY2NTMzZTJhZTYxZjEzYzM1ZmQxZDM3NDA0OTcxM2ZhYjQzYzcyOQ==&#39;</title>
<path fill="none" stroke="#002481" stroke-width="3" d="M622.55,-247.99C669.86,-237.91 722.7,-226.65 771.37,-216.29"/>
<polygon fill="#002481" stroke="#002481" stroke-width="3" points="773.11,-223.07 791.22,-212.06 770.2,-209.38 773.11,-223.07"/>
</g>
<!-- b&#39;YidhWE56ZFdVdGRISnBZV2RsTG5sdGJBPT0ncmVtb3ZlQ2FyZF9zdGVwXzE=&#39; -->
<g id="node5" class="node">
<title>b&#39;YidhWE56ZFdVdGRISnBZV2RsTG5sdGJBPT0ncmVtb3ZlQ2FyZF9zdGVwXzE=&#39;</title>
<polygon fill="#fbe29d" stroke="#c49208" stroke-width="4" points="286,-212 84,-212 84,-148 286,-148 286,-212"/>
<polygon fill="none" stroke="#c49208" points="95,-181 95,-205 275,-205 275,-181 95,-181"/>
<text text-anchor="start" x="152.5" y="-190.2" font-family="Times,serif" font-weight="bold" font-size="16.00">STEP</text>
<text text-anchor="start" x="200.5" y="-190.2" font-family="Times,serif" font-size="16.00"> </text>
<text text-anchor="start" x="206.5" y="-190.2" font-family="Times,serif" font-style="italic" font-size="16.00">1</text>
<polygon fill="none" stroke="#c49208" points="95,-155 95,-179 275,-179 275,-155 95,-155"/>
<text text-anchor="start" x="117" y="-163.2" font-family="Times,serif" font-size="16.00">Step (Unnamed)</text>
<polygon fill="none" stroke="#c49208" points="92,-152 92,-208 278,-208 278,-152 92,-152"/>
</g>
<!-- b&#39;YidhWE56ZFdVdGRISnBZV2RsTG5sdGJBPT0ncmVtb3ZlQ2FyZA==&#39;&#45;&gt;b&#39;YidhWE56ZFdVdGRISnBZV2RsTG5sdGJBPT0ncmVtb3ZlQ2FyZF9zdGVwXzE=&#39; -->
<g id="edge4" class="edge">
<title>b&#39;YidhWE56ZFdVdGRISnBZV2RsTG5sdGJBPT0ncmVtb3ZlQ2FyZA==&#39;&#45;&gt;b&#39;YidhWE56ZFdVdGRISnBZV2RsTG5sdGJBPT0ncmVtb3ZlQ2FyZF9zdGVwXzE=&#39;</title>
<path fill="none" stroke="#996300" stroke-width="4" d="M185,-247.99C185,-239.86 185,-230.96 185,-222.38"/>
<polygon fill="#996300" stroke="#996300" stroke-width="4" points="188.5,-222.14 185,-212.14 181.5,-222.14 188.5,-222.14"/>
</g>
<!-- b&#39;YWxleC1wYWdlL2dpdGh1Yi1wcm9qZWN0LWF1dG9tYXRpb24tcGx1c0BiYjI2NmZmNGRkZTkyNDIwNjBlMmQ1NDE4ZTEyMGExMzM1ODZkNDg4&#39; -->
<g id="node7" class="node">
<title>b&#39;YWxleC1wYWdlL2dpdGh1Yi1wcm9qZWN0LWF1dG9tYXRpb24tcGx1c0BiYjI2NmZmNGRkZTkyNDIwNjBlMmQ1NDE4ZTEyMGExMzM1ODZkNDg4&#39;</title>
<polygon fill="#a6e6fc" stroke="#0795c5" stroke-width="4" points="370,-90 0,-90 0,-26 370,-26 370,-90"/>
<polygon fill="none" stroke="#0795c5" points="11,-59 11,-83 359,-83 359,-59 11,-59"/>
<text text-anchor="start" x="102.5" y="-68.2" font-family="Times,serif" font-weight="bold" font-size="16.00">ACTION</text>
<text text-anchor="start" x="176.5" y="-68.2" font-family="Times,serif" font-size="16.00"> </text>
<text text-anchor="start" x="182.5" y="-68.2" font-family="Times,serif" font-style="italic" font-size="16.00">repository</text>
<polygon fill="none" stroke="#0795c5" points="11,-33 11,-57 359,-57 359,-33 11,-33"/>
<text text-anchor="start" x="14" y="-41.2" font-family="Times,serif" font-size="16.00">alex&#45;page/github&#45;project&#45;automation&#45;plus</text>
<polygon fill="none" stroke="#0795c5" points="8,-30 8,-86 362,-86 362,-30 8,-30"/>
</g>
<!-- b&#39;YidhWE56ZFdVdGRISnBZV2RsTG5sdGJBPT0ncmVtb3ZlQ2FyZF9zdGVwXzE=&#39;&#45;&gt;b&#39;YWxleC1wYWdlL2dpdGh1Yi1wcm9qZWN0LWF1dG9tYXRpb24tcGx1c0BiYjI2NmZmNGRkZTkyNDIwNjBlMmQ1NDE4ZTEyMGExMzM1ODZkNDg4&#39; -->
<g id="edge6" class="edge">
<title>b&#39;YidhWE56ZFdVdGRISnBZV2RsTG5sdGJBPT0ncmVtb3ZlQ2FyZF9zdGVwXzE=&#39;&#45;&gt;b&#39;YWxleC1wYWdlL2dpdGh1Yi1wcm9qZWN0LWF1dG9tYXRpb24tcGx1c0BiYjI2NmZmNGRkZTkyNDIwNjBlMmQ1NDE4ZTEyMGExMzM1ODZkNDg4&#39;</title>
<path fill="none" stroke="#002481" stroke-width="3" d="M185,-147.78C185,-136.4 185,-123.19 185,-110.51"/>
<polygon fill="#002481" stroke="#002481" stroke-width="3" points="192,-110.06 185,-90.06 178,-110.06 192,-110.06"/>
</g>
</g>
</svg>
